<svg width="512" height="512" viewBox="0 0 512 512" fill="none" xmlns="http://www.w3.org/2000/svg">
<path d="M197.532 125.523C196.939 119.305 188.825 107.4 161.107 109.532C161.107 109.532 188.648 97.0945 214.411 109.532C229.218 108.94 259.898 108.999 264.162 113.974C268.761 119.339 259.473 107.512 253.985 104.735C252.58 104.385 251.724 104.202 251.724 104.202C252.334 104.08 253.111 104.293 253.985 104.735C260.156 106.27 276.929 111.015 278.376 117.528C280.153 125.523 276.6 103.313 273.934 98.8713C271.269 94.4293 297.033 107.755 297.033 121.081C297.921 123.747 328.127 119.305 340.565 133.519C348.56 128.189 367.217 119.127 377.878 125.523L367.217 136.184C384.985 154.248 418.033 218.983 408.083 333.41C409.86 334.298 413.414 350.29 428.517 360.062C431.359 362.194 419.632 359.174 413.414 357.397C416.079 360.062 421.232 365.925 420.521 368.058C419.81 370.19 403.049 365.985 394.757 363.616C387.058 362.135 371.481 359.884 370.77 362.727C369.882 366.281 353.002 379.607 332.569 384.937C316.222 389.202 305.621 386.714 302.363 384.937C297.329 392.044 281.042 407.503 256.166 412.478C231.291 417.453 214.411 390.86 209.081 376.942C197.828 373.092 173.189 363.793 164.661 357.397C156.132 351 146.893 338.74 143.339 333.41C130.901 333.114 104.782 331.988 99.8072 329.856C97.675 328.435 104.249 325.118 107.803 323.637C100.399 319.788 82.5721 314.398 70.4898 323.637C66.9362 326.303 143.339 108.644 197.532 125.523Z" fill="black"/>
<path d="M197.532 125.523C196.939 119.305 188.825 107.4 161.107 109.532C161.107 109.532 188.648 97.0945 214.411 109.532C229.218 108.94 259.898 108.999 264.162 113.974C269.492 120.193 256.166 103.313 251.724 104.202C251.724 104.202 276.6 109.532 278.376 117.528C280.153 125.523 276.6 103.313 273.934 98.8713C271.269 94.4293 297.033 107.755 297.033 121.081C297.921 123.747 328.127 119.305 340.565 133.519C348.56 128.189 367.217 119.127 377.878 125.523L367.217 136.184C384.985 154.248 418.033 218.983 408.083 333.41C409.86 334.298 413.414 350.29 428.517 360.062C431.359 362.194 419.632 359.174 413.414 357.397C416.079 360.062 421.232 365.925 420.521 368.058C419.81 370.19 403.049 365.985 394.757 363.616C387.058 362.135 371.481 359.884 370.77 362.727C369.882 366.281 353.002 379.607 332.569 384.937C316.222 389.202 305.621 386.714 302.363 384.937C297.329 392.045 281.042 407.503 256.166 412.478C231.291 417.453 214.411 390.86 209.081 376.942C197.828 373.092 173.189 363.793 164.661 357.397C156.132 351 146.893 338.74 143.339 333.41C130.901 333.114 104.782 331.988 99.8072 329.856C97.675 328.435 104.249 325.118 107.803 323.637C100.399 319.788 82.5721 314.398 70.4898 323.637C66.9362 326.303 143.339 108.644 197.532 125.523Z" stroke="white" stroke-width="4"/>
<path d="M379.654 198.372C376.811 187.712 356.556 165.502 346.783 155.729C355.312 154.308 364.5 138 371 132C395.875 139.818 430.293 160.171 443.619 169.055H432.07C447.173 187.119 477.734 223.959 479.155 226.801C480.932 230.355 479.155 253.454 479.155 266.78C479.155 277.44 467.902 296.689 462.276 304.981C461.684 292.543 460.144 271.044 458.722 284.548C456.945 301.427 431.182 306.758 427.628 321.861C424.785 333.943 429.997 345.847 432.958 350.29C398.311 342.294 390.315 311.2 386.761 302.316C383.208 293.432 383.208 211.699 379.654 198.372Z" fill="black" stroke="white" stroke-width="4"/>
<path d="M158.442 187.712C163.417 155.018 197.828 145.661 214.411 145.068V130.854L188.647 118.416C177.098 119.305 152.578 120.904 146.893 120.193C141.207 119.482 132.678 112.79 129.124 109.532C130.901 113.974 133.211 122.503 128.236 121.081C123.261 119.66 112.541 126.412 107.803 129.965C120.24 129.669 122.906 130.854 122.906 130.854C100.696 132.631 40.2841 197.484 36.7305 209.033C33.1769 220.583 30.5116 257.896 36.7305 243.681C42.9493 229.467 42.9493 232.132 43.8377 243.681C44.5484 252.921 54.7947 263.522 59.829 267.668V247.235C60.1251 242.497 61.4281 236.396 64.271 249.9C67.8246 266.78 82.0391 267.668 82.0391 282.771C82.0391 294.853 71.9705 313.865 66.9362 321.861C76.4125 318.011 101.406 306.047 125.571 288.99C155.777 267.668 152.223 228.578 158.442 187.712Z" fill="black" stroke="white" stroke-width="4"/>
<path d="M199.5 144.5C199.5 144.5 216.5 144 218 144C219.5 144 220.5 125.5 220.5 125.5L195.5 115.5C195.5 115.5 198.424 124.716 199 127.5C200.345 134.004 199.5 144.5 199.5 144.5Z" fill="black" stroke="black"/>
<path d="M259.506 350.451C218.882 371.561 194.472 336.378 187.345 316.147C185.563 314.975 182 313.685 182 317.907M259.506 350.451V337.257M259.506 350.451C272.572 361.299 305.653 374.2 333.449 339.017C335.23 338.137 338.616 337.609 337.903 342.535" stroke="white" stroke-width="4" stroke-linecap="round"/>
<path d="M290.54 298.957C283.51 291.047 256.56 291.467 243.964 292.665C239.57 293.564 236.582 300.754 238.692 304.35C241.328 308.844 238.692 316.034 251.873 317.832C252.752 316.034 255.389 319.629 251.873 321.427L242.207 322.326C243.964 330.415 258.025 335.808 262.419 336.707C278.237 338.504 285.853 331.613 288.783 327.718C286.146 328.018 280.171 327.898 277.358 325.022C274.546 322.146 276.773 319.629 278.237 318.73C278.823 321.427 281.752 325.741 288.783 321.427C297.571 316.034 293.177 301.653 290.54 298.957Z" stroke="white" stroke-width="4"/>
<mask id="mask0_44_410" style="mask-type:alpha" maskUnits="userSpaceOnUse" x="181" y="313" width="158" height="93">
<path d="M259.72 350.289C220.024 371.182 195.853 337.483 188.209 316.894C187.906 316.077 187.38 315.35 186.586 314.99C184.95 314.25 182.916 314.016 182.504 316.441C182.396 317.075 182.574 317.698 182.872 318.268C198.144 347.557 229.398 404.482 235.733 404.482C243.729 404.482 281.93 404.482 286.372 394.71C289.733 387.314 295.48 375.627 298.347 369.873C298.651 369.262 299.105 368.744 299.669 368.36L336.442 343.287C337.371 342.654 338.073 341.651 337.975 340.532C337.751 337.976 335.817 337.906 334.293 338.398C333.727 338.581 333.258 338.998 332.887 339.464C305.288 374.098 272.66 361.171 259.72 350.289Z" fill="#D9D9D9"/>
<path d="M259.72 350.289C220.024 371.182 195.853 337.483 188.209 316.894C187.906 316.077 187.38 315.35 186.586 314.99C184.95 314.25 182.916 314.016 182.504 316.441C182.396 317.075 182.574 317.698 182.872 318.268C198.144 347.557 229.398 404.482 235.733 404.482C243.729 404.482 281.93 404.482 286.372 394.71C289.733 387.314 295.48 375.627 298.347 369.873C298.651 369.262 299.105 368.744 299.669 368.36L336.442 343.287C337.371 342.654 338.073 341.651 337.975 340.532C337.751 337.976 335.817 337.906 334.293 338.398C333.727 338.581 333.258 338.998 332.887 339.464C305.288 374.098 272.66 361.171 259.72 350.289ZM259.72 350.289V337" stroke="white" stroke-width="2" stroke-linecap="round"/>
</mask>
<g mask="url(#mask0_44_410)">
<path d="M254.5 338.324L282.621 339.513C284.496 339.592 286.073 340.955 286.316 342.816C288.841 362.155 285.661 395.918 254.5 397.922C223.304 399.929 220.152 362.505 222.693 340.535C222.927 338.511 224.708 337.065 226.743 337.151L254.5 338.324ZM254.5 338.324V374.083" stroke="white" stroke-width="4" stroke-linecap="round"/>
</g>
<mask id="mask1_44_410" style="mask-type:alpha" maskUnits="userSpaceOnUse" x="182" y="228" width="44" height="44">
<path d="M205.527 230.578C211.292 230.578 215.807 232.194 218.896 235.436C222 238.692 223.961 243.896 223.961 251.677C223.961 259.47 221.999 263.634 219.094 265.96C216.083 268.371 211.578 269.222 205.527 269.222C199.496 269.222 194.226 268.38 190.497 265.864C186.932 263.458 184.429 259.275 184.429 251.677C184.429 244.058 186.958 238.865 190.703 235.554C194.489 232.206 199.748 230.578 205.527 230.578Z" fill="white" stroke="white" stroke-width="4"/>
</mask>
<g mask="url(#mask1_44_410)">
<path d="M205.527 230.578C211.292 230.578 215.807 232.194 218.896 235.436C222 238.692 223.961 243.896 223.961 251.677C223.961 259.47 221.999 263.634 219.094 265.96C216.083 268.371 211.578 269.222 205.527 269.222C199.496 269.222 194.226 268.38 190.497 265.864C186.932 263.458 184.429 259.275 184.429 251.677C184.429 244.058 186.958 238.865 190.703 235.554C194.489 232.206 199.748 230.578 205.527 230.578Z" stroke="white" stroke-width="4"/>
<circle cx="206.416" cy="250.788" r="19.3217" stroke="white" stroke-width="4"/>
<path d="M206.24 243.191C210.533 243.191 214.013 246.671 214.013 250.964C214.013 255.256 210.533 258.736 206.24 258.736C201.948 258.736 198.468 255.256 198.468 250.964C198.468 246.671 201.948 243.191 206.24 243.191Z" stroke="white" stroke-width="4"/>
</g>
<mask id="mask2_44_410" style="mask-type:alpha" maskUnits="userSpaceOnUse" x="309" y="245" width="45" height="42">
<path d="M331.68 247.458C343.002 247.458 351.89 255.865 351.89 265.891C351.89 275.918 343.002 284.324 331.68 284.324C320.359 284.324 311.471 275.918 311.47 265.891C311.47 255.865 320.358 247.458 331.68 247.458Z" fill="white" stroke="white" stroke-width="4"/>
</mask>
<g mask="url(#mask2_44_410)">
<path d="M331.68 247.458C343.002 247.458 351.89 255.865 351.89 265.891C351.89 275.918 343.002 284.324 331.68 284.324C320.359 284.324 311.471 275.918 311.47 265.891C311.47 255.865 320.358 247.458 331.68 247.458Z" stroke="white" stroke-width="4"/>
<path d="M330.792 245.681C340.249 245.681 348.337 254.482 348.337 265.891C348.337 277.301 340.249 286.101 330.792 286.101C321.335 286.101 313.247 277.301 313.247 265.891C313.247 254.482 321.335 245.681 330.792 245.681Z" stroke="white" stroke-width="4"/>
<circle cx="329.904" cy="267.668" r="7.77244" stroke="white" stroke-width="4"/>
</g>
<path d="M368 129.5C359.833 137 343.6 152 344 152C344.4 152 347.5 155 349 156.5L361.5 147L370.5 133.5L370.684 132.949C370.893 132.32 371 131.662 371 131L368 129.5Z" fill="black" stroke="black"/>
</svg>
