<svg width="600" height="740" viewBox="0 0 600 740" fill="none" xmlns="http://www.w3.org/2000/svg">
<mask id="mask0_16_31" style="mask-type:alpha" maskUnits="userSpaceOnUse" x="120" y="379" width="365" height="235">
<path d="M128.185 419.928L159.18 379.935C253.497 389.934 442.53 409.93 444.13 409.93C445.73 409.93 464.793 435.259 474.125 447.924C468.886 446.09 462 442.815 459.292 441.497C463.778 445.389 472.038 467.747 471.125 465.92C470.125 463.921 437.131 445.924 442.13 448.923C446.129 451.323 453.795 461.255 457.128 465.92L442.13 463.921C466.126 484.917 474.125 518.911 474.125 518.911C469.325 506.113 461.46 503.58 458.127 503.914C467.895 503.914 477.663 535.536 481.915 548.28C483.297 550.088 484.123 551.683 484.123 552.905C484.123 554.644 483.32 552.494 481.915 548.28C476.968 541.808 464.9 532.599 458.127 527.91C460.846 534.183 465.27 543.999 468.189 549.454C469.95 550.594 471.125 551.775 471.125 552.905C471.125 554.395 469.922 552.693 468.189 549.454C464.112 546.816 456.894 544.398 453.842 543.348C458.958 548.056 475.896 588.329 484.123 608.895C480.604 605.817 475.026 600.881 472.327 598.339C474.157 601.498 475.573 608.313 476.124 611.895L462.127 600.897C352.479 610.229 133.184 622.093 133.184 594.898C133.184 560.904 168.178 526.91 161.179 525.91C154.181 524.91 133.184 543.907 133.184 543.907C128.185 529.909 169.178 500.914 165.179 494.915C161.179 488.916 121.186 507.913 121.186 500.914C121.186 495.315 154.514 475.252 171.178 465.92H159.18C164.941 462.628 175.31 456.761 178.35 455.236C171.722 457.191 128.185 465.587 128.185 460.921C128.185 456.735 160.442 432.913 170.34 426.455C163.083 429.501 143.763 435.67 133.184 438.925C144.516 426.261 166.778 400.732 165.179 399.932C163.579 399.132 139.85 412.93 128.185 419.928Z" fill="#FEFEFE" stroke="black"/>
</mask>
<g mask="url(#mask0_16_31)">
<path d="M128.185 419.928L159.18 379.935C253.497 389.934 442.53 409.93 444.13 409.93C445.73 409.93 464.793 435.259 474.125 447.924C468.886 446.09 462 442.815 459.292 441.497C463.778 445.389 472.038 467.747 471.125 465.92C470.125 463.921 437.131 445.924 442.13 448.923C446.129 451.323 453.795 461.255 457.128 465.92L442.13 463.921C466.126 484.917 474.125 518.911 474.125 518.911C469.325 506.113 461.46 503.58 458.127 503.914C467.895 503.914 477.663 535.536 481.915 548.28C483.297 550.088 484.123 551.683 484.123 552.905C484.123 554.644 483.32 552.494 481.915 548.28C476.968 541.808 464.9 532.599 458.127 527.91C460.846 534.183 465.27 543.999 468.189 549.454C469.95 550.594 471.125 551.775 471.125 552.905C471.125 554.395 469.922 552.693 468.189 549.454C464.112 546.816 456.894 544.398 453.842 543.348C458.958 548.056 475.896 588.329 484.123 608.895C480.604 605.817 475.026 600.881 472.327 598.339C474.157 601.498 475.573 608.313 476.124 611.895L462.127 600.897C352.479 610.229 133.184 622.093 133.184 594.898C133.184 560.904 168.178 526.91 161.179 525.91C154.181 524.91 133.184 543.907 133.184 543.907C128.185 529.909 169.178 500.914 165.179 494.915C161.179 488.916 121.186 507.913 121.186 500.914C121.186 495.315 154.514 475.252 171.178 465.92H159.18C164.941 462.628 175.31 456.761 178.35 455.236C171.722 457.191 128.185 465.587 128.185 460.921C128.185 456.735 160.442 432.913 170.34 426.455C163.083 429.501 143.763 435.67 133.184 438.925C144.516 426.261 166.778 400.732 165.179 399.932C163.579 399.132 139.85 412.93 128.185 419.928Z" fill="#FEFEFE" stroke="black"/>
<path d="M160.179 495.915C162.579 491.116 203.172 484.584 223.168 481.918C216.77 513.912 229.834 541.907 237.166 551.905C235.566 543.107 239.166 528.909 241.165 522.91C236.366 553.305 258.496 580.9 270.16 590.899C266.28 578.483 277.144 555.652 283.577 544.867C283.764 544.546 283.957 544.226 284.158 543.907C283.969 544.215 283.775 544.535 283.577 544.867C268.007 571.724 303.261 605.872 312.153 603.896C337.748 596.698 371.143 528.909 371.143 528.909C374.342 533.709 368.476 549.572 365.144 556.904C387.14 536.908 393.139 507.913 393.139 507.913C397.138 511.912 393.139 522.91 393.139 522.91C398.138 516.911 408.136 484.917 408.136 484.917C410.136 484.917 414.135 495.915 414.135 495.915C418.134 495.915 423.133 460.921 420.134 454.922C422.534 450.923 433.132 456.589 438.131 459.921L448.129 467.92L501.12 475.919V643.889L101.19 624.893L113.188 514.912C127.852 510.579 157.78 500.714 160.179 495.915Z" fill="#C1C0BD" stroke="black"/>
<path d="M159.18 379.935L128.185 419.928C139.85 412.93 163.579 399.132 165.179 399.932C166.778 400.732 144.516 426.261 133.184 438.925C146.182 434.926 172.377 426.527 173.177 424.928C174.177 422.928 128.185 455.922 128.185 460.921C128.185 465.92 178.176 455.922 179.176 454.922C179.976 454.122 166.178 461.921 159.18 465.92H171.178C154.514 475.252 121.186 495.315 121.186 500.914C121.186 507.913 161.179 488.916 165.179 494.915C169.178 500.914 128.185 529.909 133.184 543.907C133.184 543.907 154.181 524.91 161.179 525.91C168.178 526.91 133.184 560.904 133.184 594.898C133.184 622.093 352.479 610.229 462.127 600.897L476.124 611.895C475.458 607.562 473.525 598.497 471.125 596.898C468.726 595.298 478.79 604.23 484.123 608.895C475.458 587.233 457.128 543.707 453.128 542.907C448.129 541.907 471.125 547.906 471.125 552.905C471.125 556.905 462.46 537.908 458.127 527.91C466.793 533.909 484.123 547.306 484.123 552.905C484.123 559.904 471.125 503.914 458.127 503.914C461.46 503.58 469.325 506.113 474.125 518.911C474.125 518.911 466.126 484.917 442.13 463.921L457.128 465.92C453.795 461.255 446.129 451.323 442.13 448.923C437.131 445.924 470.125 463.921 471.125 465.92C472.125 467.92 462.127 440.925 458.127 440.925C458.127 440.925 467.459 445.591 474.125 447.924C464.793 435.259 445.73 409.93 444.13 409.93C442.53 409.93 253.497 389.934 159.18 379.935Z" stroke="black"/>
</g>
<mask id="mask1_16_31" style="mask-type:alpha" maskUnits="userSpaceOnUse" x="89" y="120" width="406" height="357">
<path d="M233.167 151.975C232.5 144.977 223.368 131.579 192.174 133.978C192.174 133.978 223.168 119.981 252.163 133.978C268.827 133.312 303.354 133.379 308.154 138.978C313.329 145.016 302.877 131.705 296.7 128.579C295.119 128.186 294.156 127.98 294.156 127.98C294.842 127.842 295.717 128.082 296.7 128.579C303.645 130.308 322.522 135.647 324.151 142.977C326.15 151.975 322.151 126.98 319.152 121.981C316.152 116.981 345.147 131.979 345.147 146.976C346.147 149.976 380.141 144.977 394.139 160.974C403.137 154.975 424.133 144.777 436.131 151.975L424.133 163.973C444.13 184.303 481.323 257.157 470.125 385.934C472.125 386.934 476.124 404.931 493.121 415.929C496.321 418.329 483.123 414.929 476.124 412.93C479.124 415.929 484.923 422.528 484.123 424.928C483.323 427.327 464.46 422.595 455.128 419.928C446.463 418.262 428.932 415.729 428.133 418.929C427.133 422.928 408.136 437.925 385.14 443.924C366.743 448.723 354.812 445.924 351.146 443.924C345.48 451.923 327.15 469.32 299.155 474.919C271.16 480.518 252.163 450.59 246.164 434.926C233.5 430.593 205.771 420.128 196.173 412.93C186.575 405.731 176.177 391.933 172.177 385.934C158.18 385.601 128.785 384.335 123.186 381.935C120.786 380.335 128.185 376.603 132.184 374.936C123.852 370.604 103.789 364.538 90.1917 374.936C86.1924 377.936 172.177 132.979 233.167 151.975Z" fill="#D9D9D9" stroke="black"/>
</mask>
<g mask="url(#mask1_16_31)">
<path d="M233.167 151.975C232.5 144.977 223.368 131.579 192.174 133.978C192.174 133.978 223.168 119.981 252.163 133.978C268.827 133.312 303.354 133.379 308.154 138.978C313.329 145.016 302.877 131.705 296.7 128.579C295.119 128.186 294.156 127.98 294.156 127.98C294.842 127.842 295.717 128.082 296.7 128.579C303.645 130.308 322.522 135.647 324.151 142.977C326.15 151.975 322.151 126.98 319.152 121.981C316.152 116.981 345.147 131.979 345.147 146.976C346.147 149.976 380.141 144.977 394.139 160.974C403.137 154.975 424.133 144.777 436.131 151.975L424.133 163.973C444.13 184.303 481.323 257.157 470.125 385.934C472.125 386.934 476.124 404.931 493.121 415.929C496.321 418.329 483.123 414.929 476.124 412.93C479.124 415.929 484.923 422.528 484.123 424.928C483.323 427.327 464.46 422.595 455.128 419.928C446.463 418.262 428.932 415.729 428.133 418.929C427.133 422.928 408.136 437.925 385.14 443.924C366.743 448.723 354.812 445.924 351.146 443.924C345.48 451.923 327.15 469.32 299.155 474.919C271.16 480.518 252.163 450.59 246.164 434.926C233.5 430.593 205.771 420.128 196.173 412.93C186.575 405.731 176.177 391.933 172.177 385.934C158.18 385.601 128.785 384.335 123.186 381.935C120.786 380.335 128.185 376.603 132.184 374.936C123.852 370.604 103.789 364.538 90.1917 374.936C86.1924 377.936 172.177 132.979 233.167 151.975Z" fill="#FEFEFE"/>
<path d="M228.168 371.937C226.568 348.741 256.829 320.279 272.16 308.948C278.559 300.949 293.489 268.288 300.155 252.958C292.156 239.627 275.359 212.165 272.16 208.965C268.96 205.766 243.498 212.298 231.167 215.964C221.169 228.962 209.371 253.358 206.171 250.958C202.972 248.558 115.854 331.277 72.1949 371.937L107.189 390.934L168.178 416.929C195.173 425.261 248.564 440.525 246.164 434.926C243.165 427.927 233.167 419.928 230.167 413.93C227.768 409.13 235.166 402.598 239.166 399.932C236.166 400.265 229.767 395.133 228.168 371.937Z" fill="#D78138"/>
<path d="M205.172 287.952C213.17 260.756 199.839 224.629 192.174 209.965C177.776 200.367 150.848 277.953 139.183 317.946C157.847 319.279 197.173 315.147 205.172 287.952Z" fill="#665858"/>
<path d="M228.168 222.963C231.254 228.107 214.503 247.625 206.171 253.957C198.973 252.358 187.175 186.636 182.176 153.975V117.981L268.161 121.981C280.492 126.313 301.955 135.578 289.157 137.978C273.16 140.977 274.16 175.971 278.159 178.971C302.155 193.368 305.154 221.963 305.154 236.96C303.157 268.922 283.864 298.889 270.202 309.914C270.174 309.937 270.16 309.948 270.16 309.948C270.174 309.937 270.188 309.925 270.202 309.914C270.821 309.395 278.265 302.485 285.158 264.956C292.356 225.762 270.827 213.298 259.162 211.965C248.831 214.631 225.168 217.964 228.168 222.963Z" fill="#C1C0BD"/>
<path d="M289.157 187.969C297.155 191.968 305.154 218.964 306.154 232.961C306.92 243.691 294.061 244.103 286.157 242.959C283.158 224.963 279.159 223.963 269.16 214.964C259.162 205.966 281.158 183.97 289.157 187.969Z" fill="#665858"/>
<path d="M387.14 191.968C388.739 206.366 371.809 217.964 363.144 221.963C371.142 221.963 390.339 224.963 403.137 236.96C419.134 251.958 425.133 307.948 426.133 300.949C427.133 293.95 427.133 199.967 405.137 188.969C394.464 183.632 417.543 183.197 434.131 169.972C444.893 161.392 444.555 142.748 454.128 136.978C416.135 138.644 341.948 142.177 349.146 142.977C358.145 143.977 385.14 173.971 387.14 191.968Z" fill="#C1C0BD"/>
<path d="M339.148 309.948C330.35 260.356 354.812 237.294 368.143 231.961C368.81 228.295 368.943 220.963 364.144 220.963C358.145 220.963 322.151 257.957 325.151 279.953C328.15 301.949 341.148 313.947 339.148 309.948Z" fill="#665858"/>
<path d="M338.148 262.956C338.148 260.427 356.145 224.963 363.144 221.963C409.536 221.163 423.133 259.956 425.133 298.95L468.126 347.941L522.116 403.931L517.117 438.925L370.143 460.921L352.146 444.924C353.146 445.591 356.545 445.124 362.144 437.925C367.743 430.727 363.81 420.928 361.144 416.929C367.143 411.93 379.141 400.532 379.141 394.933C381.141 323.945 344.147 316.946 338.148 309.948C332.149 302.949 338.148 266.955 338.148 262.956Z" fill="#D78138"/>
<path d="M377.141 262.956C356.345 259.756 355.145 298.95 357.145 318.946C356.145 323.945 372.142 344.942 374.142 342.942C376.142 340.942 380.141 343.942 384.14 344.942C388.14 345.941 402.137 373.936 411.136 362.938C420.134 351.94 429.132 354.94 433.132 352.94C437.131 350.941 463.126 390.934 469.125 382.935C475.124 374.936 464.126 242.959 458.127 227.962C453.328 215.964 425.466 202.966 412.135 197.967C418.134 206.966 428.133 291.951 426.133 298.95C424.533 304.549 418.468 305.282 415.135 303.949C411.136 291.618 397.938 266.155 377.141 262.956Z" fill="#D78138"/>
<path d="M233.167 151.975C232.5 144.977 223.368 131.579 192.174 133.978C192.174 133.978 223.168 119.981 252.163 133.978C268.827 133.312 303.354 133.379 308.154 138.978C314.153 145.976 299.155 126.98 294.156 127.98C294.156 127.98 322.151 133.979 324.151 142.977C326.15 151.975 322.151 126.98 319.152 121.981C316.152 116.981 345.147 131.979 345.147 146.976C346.147 149.976 380.141 144.977 394.139 160.974C403.137 154.975 424.133 144.777 436.131 151.975L424.133 163.973C444.13 184.303 481.323 257.157 470.125 385.934C472.125 386.934 476.124 404.931 493.121 415.929C496.321 418.329 483.123 414.929 476.124 412.93C479.124 415.929 484.923 422.528 484.123 424.928C483.323 427.327 464.46 422.595 455.128 419.928C446.463 418.262 428.932 415.729 428.133 418.929C427.133 422.928 408.136 437.925 385.14 443.924C366.743 448.723 354.812 445.924 351.146 443.924C345.48 451.923 327.15 469.32 299.155 474.919C271.16 480.518 252.163 450.59 246.164 434.926C233.5 430.593 205.771 420.128 196.173 412.93C186.575 405.731 176.177 391.933 172.177 385.934C158.18 385.601 128.785 384.335 123.186 381.935C120.786 380.335 128.185 376.603 132.184 374.936C123.852 370.604 103.789 364.538 90.1917 374.936C86.1924 377.936 172.177 132.979 233.167 151.975Z" stroke="black"/>
</g>
<mask id="mask2_16_31" style="mask-type:alpha" maskUnits="userSpaceOnUse" x="400" y="159" width="152" height="247">
<path d="M438.131 233.961C434.931 221.963 412.135 196.967 401.137 185.969C410.736 184.37 424.467 167.972 430.132 159.974C458.127 168.772 495.121 190.968 510.118 200.967H497.121C514.118 221.297 548.512 262.756 550.111 265.955C552.111 269.955 550.111 295.95 550.111 310.947C550.111 322.945 537.447 344.608 531.115 353.94C530.448 339.942 528.715 315.747 527.115 330.944C525.116 349.941 496.121 355.94 492.121 372.937C488.922 386.534 494.788 399.932 498.12 404.931C459.127 395.933 450.129 360.939 446.129 350.94C442.13 340.942 442.13 248.958 438.131 233.961Z" fill="#D9D9D9" stroke="black"/>
</mask>
<g mask="url(#mask2_16_31)">
<path d="M438.131 233.961C434.931 221.963 412.135 196.967 401.137 185.969C410.736 184.37 424.467 167.972 430.132 159.974C458.127 168.772 495.121 190.968 510.118 200.967H497.121C514.118 221.297 548.512 262.756 550.111 265.955C552.111 269.955 550.111 295.95 550.111 310.947C550.111 322.945 537.447 344.608 531.115 353.94C530.448 339.942 528.715 315.747 527.115 330.944C525.116 349.941 496.121 355.94 492.121 372.937C488.922 386.534 494.788 399.932 498.12 404.931C459.127 395.933 450.129 360.939 446.129 350.94C442.13 340.942 442.13 248.958 438.131 233.961Z" fill="#C1C0BD"/>
<path d="M530.115 300.949C537.313 296.15 527.115 266.955 521.116 252.958L554.083 279.137L565.109 342.942L483.123 431.926C470.125 411.93 444.93 366.738 448.129 345.941C451.329 325.145 472.791 319.946 483.123 319.946C481.457 323.612 480.523 330.144 490.122 326.945C502.12 322.945 507.119 311.947 510.118 306.948C513.118 301.949 507.119 262.956 513.118 267.955C529.115 282.952 521.116 306.948 530.115 300.949Z" fill="#665858"/>
<path d="M414.135 180.97C414.135 187.369 406.803 187.636 403.137 186.969C410.136 227.629 428.133 310.148 444.13 314.947C460.127 319.746 470.125 304.949 473.125 296.95C481.79 293.95 499.12 282.352 499.12 259.956C499.12 237.56 471.792 227.962 458.127 225.962C469.125 205.966 414.135 172.972 414.135 180.97Z" fill="#665858"/>
<path d="M438.131 233.961C434.931 221.963 412.135 196.967 401.137 185.969C410.736 184.37 424.467 167.972 430.132 159.974C458.127 168.772 495.121 190.968 510.118 200.967H497.121C514.118 221.297 548.512 262.756 550.111 265.955C552.111 269.955 550.111 295.95 550.111 310.947C550.111 322.945 537.447 344.608 531.115 353.94C530.448 339.942 528.715 315.747 527.115 330.944C525.116 349.941 496.121 355.94 492.121 372.937C488.922 386.534 494.788 399.932 498.12 404.931C459.127 395.933 450.129 360.939 446.129 350.94C442.13 340.942 442.13 248.958 438.131 233.961Z" stroke="black"/>
</g>
<mask id="mask3_16_31" style="mask-type:alpha" maskUnits="userSpaceOnUse" x="47" y="133" width="206" height="241">
<path d="M189.174 221.963C194.773 185.169 233.5 174.638 252.163 173.971V157.974L223.168 143.977C210.171 144.977 182.576 146.776 176.177 145.976C169.778 145.176 160.179 137.644 156.18 133.978C158.18 138.978 160.779 148.576 155.18 146.976C149.581 145.376 137.517 152.975 132.184 156.974C146.182 156.641 149.181 157.974 149.181 157.974C124.186 159.974 56.1976 232.961 52.1983 245.959C48.199 258.957 45.1996 300.949 52.1983 284.952C59.1971 268.955 59.1971 271.954 60.1969 284.952C60.9968 295.35 72.5281 307.281 78.1938 311.947V288.951C78.5271 283.619 79.9935 276.753 83.1929 291.951C87.1922 310.947 103.189 311.947 103.189 328.944C103.189 342.542 91.8581 363.938 86.1924 372.937C96.8572 368.604 124.986 355.14 152.181 335.943C186.175 311.947 182.176 267.955 189.174 221.963Z" fill="#C1C0BD" stroke="black"/>
</mask>
<g mask="url(#mask3_16_31)">
<path d="M189.174 221.963C194.773 185.169 233.5 174.638 252.163 173.971V157.974L223.168 143.977C210.171 144.977 182.576 146.776 176.177 145.976C169.778 145.176 160.179 137.644 156.18 133.978C158.18 138.978 160.779 148.576 155.18 146.976C149.581 145.376 137.517 152.975 132.184 156.974C146.182 156.641 149.181 157.974 149.181 157.974C124.186 159.974 56.1976 232.961 52.1983 245.959C48.199 258.957 45.1996 300.949 52.1983 284.952C59.1971 268.955 59.1971 271.954 60.1969 284.952C60.9968 295.35 72.5281 307.281 78.1938 311.947V288.951C78.5271 283.619 79.9935 276.753 83.1929 291.951C87.1922 310.947 103.189 311.947 103.189 328.944C103.189 342.542 91.8581 363.938 86.1924 372.937C96.8572 368.604 124.986 355.14 152.181 335.943C186.175 311.947 182.176 267.955 189.174 221.963Z" fill="#C1C0BD" stroke="black"/>
<path d="M119.744 299.949C107.747 286.352 114.745 273.621 119.744 268.955C123.597 263.956 119.744 258.957 109.746 258.957C100.626 258.957 87.4168 271.954 80.7513 281.953C78.4184 285.285 76.952 294.95 89.7497 306.948C102.547 318.946 103.747 326.945 103.747 330.944H116.745C122.744 326.278 131.742 313.547 119.744 299.949Z" fill="#665858"/>
<path d="M107.327 204.113L97.3285 199.113C97.3285 199.113 95.3289 199.863 94.3291 199.113C90.3298 196.114 52.3364 240.106 50.3368 248.105C45.3376 252.104 46.1994 308.948 48.1991 304.949C49.7988 301.749 54.8646 284.285 57.1975 281.953C52.3983 299.549 71.6664 308.615 77.332 313.947C77.9986 303.615 72.5329 271.101 77.332 275.1C82.1312 279.099 89.3299 262.102 92.3294 253.104C88.9967 245.772 82.9311 229.708 85.3306 224.109C87.7302 218.51 100.328 213.778 106.327 212.111L107.327 204.113Z" fill="#D78138"/>
<path d="M118.187 223.963C110.988 221.563 109.188 212.965 111.188 202.966C112.87 190.351 139.311 172.785 147.669 167.522C148.455 166.876 149.292 166.354 150.181 165.973C150.181 165.973 149.248 166.528 147.669 167.522C138.556 175.002 136.184 199 136.184 210.965C133.184 216.297 125.385 226.362 118.187 223.963Z" fill="#665858"/>
<path d="M252.163 173.971C233.5 174.638 194.773 185.169 189.174 221.963C182.176 267.955 186.175 311.947 152.181 335.943C124.986 355.14 96.8572 368.604 86.1924 372.937C91.8581 363.938 103.189 342.542 103.189 328.944C103.189 311.947 87.1922 310.948 83.1929 291.951C79.9935 276.753 78.5271 283.619 78.1938 288.951V311.947C72.5281 307.281 60.9968 295.35 60.1969 284.952C59.1971 271.954 59.1971 268.955 52.1983 284.952C45.1996 300.949 48.199 258.957 52.1983 245.959C56.1976 232.961 124.186 159.974 149.181 157.974C149.181 157.974 146.182 156.641 132.184 156.974C137.517 152.975 149.581 145.376 155.18 146.976C160.779 148.576 158.18 138.978 156.18 133.978C160.179 137.644 169.778 145.176 176.177 145.976C182.576 146.776 210.171 144.977 223.168 143.977L252.163 157.974" stroke="black"/>
</g>
<rect x="232.71" y="144.74" width="33.9941" height="42.2306" transform="rotate(2.0938 232.71 144.74)" fill="#C1C0BD"/>
<rect x="422.602" y="162.973" width="3.9993" height="34.6245" transform="rotate(47.343 422.602 162.973)" fill="#C1C0BD"/>
<rect x="405.734" y="181.275" width="3.9993" height="9.45634" transform="rotate(65.8405 405.734 181.275)" fill="#C1C0BD"/>
<rect x="429.627" y="160.186" width="3.9993" height="34.3966" transform="rotate(47.343 429.627 160.186)" fill="#C1C0BD"/>
<path d="M302.946 404.977C257.374 428.782 229.991 389.107 221.996 366.294C219.998 364.971 216 363.517 216 368.278M302.946 404.977V390.099M302.946 404.977C317.603 417.21 354.714 431.757 385.894 392.082C387.893 391.091 391.691 390.495 390.891 396.05" stroke="black" stroke-width="2" stroke-linecap="round"/>
<path d="M338.046 347.73C330.011 338.941 299.212 339.407 284.816 340.739C279.795 341.738 276.38 349.727 278.79 353.722C281.803 358.715 278.79 366.704 293.855 368.702C294.86 366.704 297.873 370.699 293.855 372.696L282.808 373.695C284.816 382.683 300.886 388.675 305.907 389.674C323.985 391.671 332.69 384.015 336.037 379.687C333.024 380.02 326.195 379.887 322.981 376.691C319.767 373.495 322.311 370.699 323.985 369.7C324.655 372.696 328.003 377.49 336.037 372.696C346.081 366.704 341.059 350.726 338.046 347.73Z" fill="black"/>
<mask id="mask4_16_31" style="mask-type:alpha" maskUnits="userSpaceOnUse" x="216" y="364" width="176" height="102">
<path d="M303.154 404.931C257.562 428.927 230.167 388.934 222.169 365.938C220.169 364.605 216.17 363.138 216.17 367.938C233.167 400.598 268.96 465.92 276.159 465.92C285.158 465.92 328.15 465.92 333.149 454.922C337.149 446.124 344.147 431.926 347.147 425.927L391.139 395.933C391.939 390.334 388.14 390.933 386.14 391.933C354.945 431.926 317.819 417.262 303.154 404.931Z" fill="#D9D9D9"/>
</mask>
<g mask="url(#mask4_16_31)">
<path d="M297.156 458.922C260.362 461.321 258.496 413.93 262.162 389.934L297.156 391.433L332.149 392.933C335.815 413.93 333.949 456.522 297.156 458.922Z" fill="#FE9598"/>
<path d="M297.156 391.433L332.149 392.933C335.815 413.93 333.949 456.522 297.156 458.922C260.362 461.321 258.496 413.93 262.162 389.934L297.156 391.433ZM297.156 391.433V431.926" stroke="black" stroke-width="2" stroke-linecap="round"/>
</g>
<mask id="mask5_16_31" style="mask-type:alpha" maskUnits="userSpaceOnUse" x="216" y="267" width="50" height="49">
<path d="M265.161 293.951C265.161 312.173 255.97 315.947 242.165 315.947C228.36 315.947 216.17 312.173 216.17 293.951C216.17 275.728 228.36 267.955 242.165 267.955C255.97 267.955 265.161 275.728 265.161 293.951Z" fill="white"/>
</mask>
<g mask="url(#mask5_16_31)">
<path d="M265.161 293.951C265.161 312.173 255.97 315.947 242.165 315.947C228.36 315.947 216.17 312.173 216.17 293.951C216.17 275.728 228.36 267.955 242.165 267.955C255.97 267.955 265.161 275.728 265.161 293.951Z" fill="white"/>
<circle cx="243.165" cy="292.951" r="23.9958" fill="#00D0FF"/>
<path d="M251.164 295.95C251.164 302.024 246.24 306.948 240.165 306.948C234.091 306.948 229.167 302.024 229.167 295.95C229.167 289.876 234.091 284.952 240.165 284.952C246.24 284.952 251.164 289.876 251.164 295.95Z" fill="black"/>
<circle cx="240.165" cy="287.952" r="0.999825" fill="white"/>
<rect x="212.795" y="286.655" width="56.9899" height="30.9944" transform="rotate(9.71335 212.795 286.655)" fill="#C1C0BD" stroke="black"/>
<rect x="218.194" y="255.12" width="56.9899" height="30.9944" transform="rotate(9.71335 218.194 255.12)" fill="#C1C0BD" stroke="black"/>
</g>
<mask id="mask6_16_31" style="mask-type:alpha" maskUnits="userSpaceOnUse" x="359" y="286" width="51" height="47">
<ellipse cx="384.14" cy="309.948" rx="24.9956" ry="22.996" fill="white"/>
</mask>
<g mask="url(#mask6_16_31)">
<ellipse cx="384.14" cy="309.948" rx="24.9956" ry="22.996" fill="white"/>
<ellipse cx="383.141" cy="309.948" rx="21.9962" ry="24.9956" fill="#00D0FF"/>
<circle cx="382.141" cy="311.947" r="10.9981" fill="black"/>
<circle cx="384.14" cy="303.949" r="0.999825" fill="white"/>
<rect x="356.77" y="306.652" width="56.9899" height="30.9944" transform="rotate(9.71335 356.77 306.652)" fill="#C1C0BD" stroke="black"/>
<rect x="362.168" y="275.116" width="56.9899" height="30.9944" transform="rotate(9.71335 362.168 275.116)" fill="#C1C0BD" stroke="black"/>
</g>
<path d="M423.113 484.823L457.128 592.898L388.098 563.994L368.09 484.823C366.422 479.796 363.688 467.732 366.089 459.689C368.49 451.646 375.76 453.825 379.094 455.919C387.898 446.871 396.769 452.149 400.103 455.919C399.103 449.636 419.111 453.406 423.113 459.689C426.314 464.716 424.447 478.539 423.113 484.823Z" fill="#C1C0BD" stroke="black"/>
<path d="M386.14 561.904L445.13 565.903L456.128 593.898L392.139 579.9L386.14 561.904Z" fill="#C1C0BD"/>
<ellipse cx="374.181" cy="467.555" rx="3.9993" ry="5.99895" transform="rotate(-10.6343 374.181 467.555)" fill="#FE9598"/>
<ellipse cx="390.063" cy="463.492" rx="3.9993" ry="5.99895" transform="rotate(-9.36765 390.063 463.492)" fill="#FE9598"/>
<ellipse cx="410.548" cy="465.103" rx="3.9993" ry="5.99895" transform="rotate(2.71595 410.548 465.103)" fill="#FE9598"/>
<circle cx="395.481" cy="493.259" r="13.9976" transform="rotate(-10.6343 395.481 493.259)" fill="#FE9598"/>
<path d="M191.195 490.822L157.18 598.897L226.209 569.993L246.218 490.822C247.885 485.795 250.62 473.731 248.219 465.688C245.818 457.645 238.548 459.823 235.213 461.918C226.409 452.87 217.539 458.148 214.204 461.918C215.205 455.635 195.196 459.405 191.195 465.688C187.993 470.715 189.861 484.538 191.195 490.822Z" fill="#C1C0BD" stroke="black"/>
<path d="M228.168 567.903L169.178 571.902L158.18 599.897L222.169 585.899L228.168 567.903Z" fill="#C1C0BD"/>
<ellipse cx="201.172" cy="472.919" rx="3.9993" ry="5.99895" fill="#FE9598"/>
<ellipse cx="222.446" cy="469.681" rx="3.9993" ry="5.99895" transform="rotate(13.3502 222.446 469.681)" fill="#FE9598"/>
<ellipse cx="240.443" cy="471.681" rx="3.9993" ry="5.99895" transform="rotate(13.3502 240.443 471.681)" fill="#FE9598"/>
<ellipse cx="217.169" cy="496.915" rx="13.9976" ry="13.9976" fill="#FE9598"/>
</svg>
