<svg width="600" height="740" viewBox="0 0 600 740" fill="none" xmlns="http://www.w3.org/2000/svg">
<mask id="mask0_37_267" style="mask-type:alpha" maskUnits="userSpaceOnUse" x="53" y="80" width="504" height="224">
<path d="M150.5 126.5C118.5 143.7 73.8333 206.667 55.5 236C219 264.333 547.3 316.5 552.5 298.5C559 276 556.5 273 540.5 221C524.5 169 425.5 109 404 94C382.5 79 304.5 82 268.5 82C232.5 82 190.5 105 150.5 126.5Z" fill="#D9D9D9" stroke="black" stroke-width="2"/>
</mask>
<g mask="url(#mask0_37_267)">
<path d="M150.5 126.5C118.5 143.7 73.8333 206.667 55.5 236C219 264.333 547.3 316.5 552.5 298.5C559 276 556.5 273 540.5 221C524.5 169 425.5 109 404 94C382.5 79 304.5 82 268.5 82C232.5 82 190.5 105 150.5 126.5Z" fill="#425BFF"/>
<rect x="31.7832" y="193.125" width="547.455" height="109" transform="rotate(7.72828 31.7832 193.125)" fill="#2C48FF" stroke="black" stroke-width="2"/>
<path d="M150.5 126.5C118.5 143.7 73.8333 206.667 55.5 236C219 264.333 547.3 316.5 552.5 298.5C559 276 556.5 273 540.5 221C524.5 169 425.5 109 404 94C382.5 79 304.5 82 268.5 82C232.5 82 190.5 105 150.5 126.5Z" stroke="black" stroke-width="2"/>
</g>
<path d="M330.901 8.27246L331.299 9.12695L331.784 8.31836L334.103 4.45215L335.566 8.7168L335.873 9.60742L336.439 8.85449L339.148 5.25195L340.159 9.64551L340.371 10.5635L341.013 9.87402L344.084 6.57422L344.63 11.0498L344.744 11.9844L345.455 11.3662L348.854 8.40527L348.93 12.9131L348.945 13.8555L349.717 13.3145L353.407 10.7246L353.011 15.2158L352.928 16.1543L353.752 15.6973L357.692 13.5078L356.829 17.9326L356.648 18.8574L357.516 18.4883L361.663 16.7227L360.342 21.0332L360.065 21.9346L360.967 21.6582L365.276 20.3359L363.512 24.4844L363.143 25.3516L364.067 25.1709L368.491 24.3066L366.303 28.248L365.846 29.0723L366.784 28.9893L371.274 28.5918L368.686 32.2832L368.145 33.0547L369.087 33.0703L373.594 33.1445L370.634 36.5449L370.016 37.2559L370.95 37.3701L375.425 37.915L372.126 40.9873L371.437 41.6289L372.354 41.8408L376.747 42.8506L373.146 45.5605L372.393 46.127L373.283 46.4336L377.547 47.8965L373.682 50.2158L372.873 50.7012L373.728 51.0986L377.814 53L373.728 54.9014L372.873 55.2988L373.682 55.7842L377.547 58.1025L373.283 59.5664L372.393 59.873L373.146 60.4395L376.747 63.1484L372.354 64.1592L371.437 64.3711L372.126 65.0127L375.425 68.084L370.95 68.6299L370.016 68.7441L370.634 69.4551L373.594 72.8545L369.087 72.9297L368.145 72.9453L368.686 73.7168L371.274 77.4072L366.784 77.0107L365.846 76.9277L366.303 77.752L368.491 81.6924L364.067 80.8291L363.143 80.6484L363.512 81.5156L365.276 85.6631L360.967 84.3418L360.065 84.0654L360.342 84.9668L361.663 89.2764L357.516 87.5117L356.648 87.1426L356.829 88.0674L357.692 92.4912L353.752 90.3027L352.928 89.8457L353.011 90.7842L353.407 95.2744L349.717 92.6855L348.945 92.1445L348.93 93.0869L348.854 97.5938L345.455 94.6338L344.744 94.0156L344.63 94.9502L344.084 99.4248L341.013 96.126L340.371 95.4365L340.159 96.3545L339.148 100.747L336.439 97.1455L335.873 96.3926L335.566 97.2832L334.103 101.547L331.784 97.6816L331.299 96.873L330.901 97.7275L329 101.814L327.099 97.7275L326.701 96.873L326.216 97.6816L323.896 101.547L322.434 97.2832L322.127 96.3926L321.561 97.1455L318.851 100.747L317.841 96.3545L317.629 95.4365L316.987 96.126L313.915 99.4248L313.37 94.9502L313.256 94.0156L312.545 94.6338L309.145 97.5938L309.07 93.0869L309.055 92.1445L308.283 92.6855L304.592 95.2744L304.989 90.7842L305.072 89.8457L304.248 90.3027L300.307 92.4912L301.171 88.0674L301.352 87.1426L300.484 87.5117L296.336 89.2764L297.658 84.9668L297.935 84.0654L297.033 84.3418L292.723 85.6631L294.488 81.5156L294.857 80.6484L293.933 80.8291L289.508 81.6924L291.697 77.752L292.154 76.9277L291.216 77.0107L286.725 77.4072L289.314 73.7168L289.855 72.9453L288.913 72.9297L284.405 72.8545L287.366 69.4551L287.984 68.7441L287.05 68.6299L282.574 68.084L285.874 65.0127L286.563 64.3711L285.646 64.1592L281.252 63.1484L284.854 60.4395L285.607 59.873L284.717 59.5664L280.452 58.1025L284.318 55.7842L285.127 55.2988L284.272 54.9014L280.185 53L284.272 51.0986L285.127 50.7012L284.318 50.2158L280.452 47.8965L284.717 46.4336L285.607 46.127L284.854 45.5605L281.252 42.8506L285.646 41.8408L286.563 41.6289L285.874 40.9873L282.574 37.915L287.05 37.3701L287.984 37.2559L287.366 36.5449L284.405 33.1445L288.913 33.0703L289.855 33.0547L289.314 32.2832L286.725 28.5918L291.216 28.9893L292.154 29.0723L291.697 28.248L289.508 24.3066L293.933 25.1709L294.857 25.3516L294.488 24.4844L292.723 20.3359L297.033 21.6582L297.935 21.9346L297.658 21.0332L296.336 16.7227L300.484 18.4883L301.352 18.8574L301.171 17.9326L300.307 13.5078L304.248 15.6973L305.072 16.1543L304.989 15.2158L304.592 10.7246L308.283 13.3145L309.055 13.8555L309.07 12.9131L309.145 8.40527L312.545 11.3662L313.256 11.9844L313.37 11.0498L313.915 6.57422L316.987 9.87402L317.629 10.5635L317.841 9.64551L318.851 5.25195L321.561 8.85449L322.127 9.60742L322.434 8.7168L323.896 4.45215L326.216 8.31836L326.701 9.12695L327.099 8.27246L329 4.18457L330.901 8.27246Z" fill="#3FA3F5" stroke="black"/>
</svg>
