<svg width="600" height="740" viewBox="0 0 600 740" fill="none" xmlns="http://www.w3.org/2000/svg">
<mask id="mask0_16_115" style="mask-type:alpha" maskUnits="userSpaceOnUse" x="120" y="379" width="366" height="235">
<path d="M128.271 420.251L159.3 380.215C253.718 390.224 442.956 410.242 444.557 410.242C446.159 410.242 465.243 435.598 474.584 448.277C469.34 446.441 462.447 443.163 459.736 441.843C464.227 445.739 472.496 468.121 471.582 466.293C470.581 464.291 437.551 446.275 442.556 449.277C446.559 451.68 454.233 461.622 457.569 466.293L442.556 464.291C466.577 485.31 474.584 519.341 474.584 519.341C469.78 506.529 461.906 503.994 458.57 504.327C468.349 504.327 478.127 535.983 482.383 548.742C483.766 550.552 484.594 552.148 484.594 553.371C484.594 555.112 483.79 552.96 482.383 548.742C477.431 542.262 465.35 533.043 458.57 528.349C461.291 534.629 465.72 544.456 468.643 549.917C470.406 551.058 471.582 552.24 471.582 553.371C471.582 554.863 470.378 553.159 468.643 549.917C464.561 547.275 457.335 544.855 454.28 543.804C459.401 548.517 476.358 588.833 484.594 609.422C481.071 606.34 475.487 601.399 472.785 598.854C474.617 602.016 476.035 608.839 476.586 612.425L462.574 601.415C352.808 610.757 133.276 622.634 133.276 595.409C133.276 561.379 168.308 527.348 161.301 526.347C154.295 525.346 133.276 544.363 133.276 544.363C128.271 530.351 169.309 501.324 165.305 495.319C161.301 489.314 121.265 508.331 121.265 501.324C121.265 495.719 154.629 475.635 171.31 466.293H159.3C165.067 462.997 175.447 457.124 178.49 455.597C171.855 457.554 128.271 465.959 128.271 461.288C128.271 457.097 160.563 433.25 170.472 426.785C163.207 429.834 143.866 436.01 133.276 439.268C144.62 426.59 166.906 401.034 165.305 400.233C163.703 399.432 139.949 413.245 128.271 420.251Z" fill="#FEFEFE" stroke="black"/>
</mask>
<g mask="url(#mask0_16_115)">
<path d="M128.271 420.251L159.3 380.215C253.718 390.224 442.956 410.242 444.557 410.242C446.159 410.242 465.243 435.598 474.584 448.277C469.34 446.441 462.447 443.163 459.736 441.843C464.227 445.739 472.496 468.121 471.582 466.293C470.581 464.291 437.551 446.275 442.556 449.277C446.559 451.68 454.233 461.622 457.569 466.293L442.556 464.291C466.577 485.31 474.584 519.341 474.584 519.341C469.78 506.529 461.906 503.994 458.57 504.327C468.349 504.327 478.127 535.983 482.383 548.742C483.766 550.552 484.594 552.148 484.594 553.371C484.594 555.112 483.79 552.96 482.383 548.742C477.431 542.262 465.35 533.043 458.57 528.349C461.291 534.629 465.72 544.456 468.643 549.917C470.406 551.058 471.582 552.24 471.582 553.371C471.582 554.863 470.378 553.159 468.643 549.917C464.561 547.275 457.335 544.855 454.28 543.804C459.401 548.517 476.358 588.833 484.594 609.422C481.071 606.34 475.487 601.399 472.785 598.854C474.617 602.016 476.035 608.839 476.586 612.425L462.574 601.415C352.808 610.757 133.276 622.634 133.276 595.409C133.276 561.379 168.308 527.348 161.301 526.347C154.295 525.346 133.276 544.363 133.276 544.363C128.271 530.351 169.309 501.324 165.305 495.319C161.301 489.314 121.265 508.331 121.265 501.324C121.265 495.719 154.629 475.635 171.31 466.293H159.3C165.067 462.997 175.447 457.124 178.49 455.597C171.855 457.554 128.271 465.959 128.271 461.288C128.271 457.097 160.563 433.25 170.472 426.785C163.207 429.834 143.866 436.01 133.276 439.268C144.62 426.59 166.906 401.034 165.305 400.233C163.703 399.432 139.949 413.245 128.271 420.251Z" fill="#FEFEFE" stroke="black"/>
<path d="M160.3 496.32C162.703 491.516 203.339 484.976 223.357 482.307C216.952 514.336 230.03 542.362 237.37 552.371C235.769 543.563 239.372 529.35 241.374 523.344C236.569 553.772 258.723 581.397 270.4 591.406C266.516 578.976 277.391 556.121 283.832 545.325C284.018 545.003 284.212 544.683 284.413 544.363C284.223 544.672 284.03 544.993 283.832 545.325C268.245 572.21 303.536 606.396 312.438 604.418C338.061 597.211 371.491 529.35 371.491 529.35C374.694 534.154 368.822 550.035 365.486 557.375C387.506 537.357 393.511 508.331 393.511 508.331C397.515 512.334 393.511 523.344 393.511 523.344C398.516 517.339 408.525 485.31 408.525 485.31C410.527 485.31 414.53 496.32 414.53 496.32C418.534 496.32 423.538 461.288 420.536 455.283C422.938 451.279 433.547 456.951 438.552 460.287L448.561 468.295L501.609 476.302V644.454L101.247 625.437L113.258 515.337C127.938 511 157.898 501.124 160.3 496.32Z" fill="#C1C0BD" stroke="black"/>
<path d="M159.3 380.215L128.271 420.251C139.949 413.245 163.703 399.432 165.305 400.233C166.906 401.034 144.62 426.59 133.276 439.268C146.288 435.265 172.511 426.857 173.312 425.256C174.313 423.254 128.271 456.284 128.271 461.288C128.271 466.293 178.317 456.284 179.318 455.283C180.118 454.482 166.306 462.289 159.3 466.293H171.31C154.629 475.635 121.265 495.719 121.265 501.324C121.265 508.331 161.301 489.314 165.305 495.319C169.309 501.324 128.271 530.351 133.276 544.363C133.276 544.363 154.295 525.346 161.301 526.347C168.308 527.348 133.276 561.379 133.276 595.409C133.276 622.634 352.808 610.757 462.574 601.415L476.586 612.425C475.919 608.088 473.984 599.013 471.582 597.411C469.18 595.81 479.255 604.751 484.593 609.422C475.919 587.736 457.569 544.163 453.565 543.362C448.561 542.362 471.582 548.367 471.582 553.371C471.582 557.375 462.907 538.358 458.57 528.349C467.244 534.354 484.593 547.766 484.593 553.371C484.593 560.378 471.582 504.327 458.57 504.327C461.906 503.994 469.78 506.529 474.584 519.341C474.584 519.341 466.577 485.31 442.556 464.291L457.569 466.293C454.233 461.622 446.559 451.68 442.556 449.277C437.551 446.275 470.581 464.291 471.582 466.293C472.583 468.295 462.574 441.27 458.57 441.27C458.57 441.27 467.912 445.941 474.584 448.277C465.243 435.598 446.159 410.242 444.557 410.242C442.956 410.242 253.718 390.224 159.3 380.215Z" stroke="black"/>
</g>
<mask id="mask1_16_115" style="mask-type:alpha" maskUnits="userSpaceOnUse" x="89" y="120" width="406" height="357">
<path d="M233.367 152.009C232.699 145.002 223.558 131.59 192.33 133.992C192.33 133.992 223.358 119.98 252.384 133.992C269.066 133.325 303.63 133.392 308.434 138.997C313.615 145.042 303.152 131.717 296.968 128.587C295.386 128.194 294.422 127.987 294.422 127.987C295.109 127.85 295.984 128.09 296.968 128.587C303.921 130.318 322.818 135.663 324.449 143.001C326.451 152.009 322.447 126.986 319.444 121.982C316.442 116.977 345.468 131.991 345.468 147.004C346.469 150.007 380.5 145.002 394.512 161.017C403.52 155.011 424.539 144.802 436.55 152.009L424.539 164.02C444.557 184.371 481.791 257.304 470.581 386.22C472.583 387.221 476.586 405.238 493.602 416.248C496.805 418.65 483.593 415.247 476.586 413.245C479.589 416.248 485.394 422.854 484.594 425.256C483.793 427.658 464.909 422.92 455.567 420.251C446.893 418.583 429.344 416.047 428.543 419.25C427.542 423.254 408.525 438.267 385.504 444.273C367.087 449.077 355.143 446.275 351.473 444.273C345.802 452.28 327.452 469.696 299.426 475.301C271.401 480.906 252.384 450.946 246.378 435.265C233.7 430.927 205.942 420.451 196.333 413.245C186.724 406.038 176.315 392.226 172.311 386.22C158.299 385.887 128.872 384.619 123.267 382.217C120.865 380.615 128.272 376.879 132.275 375.21C123.934 370.873 103.85 364.801 90.2373 375.21C86.2337 378.213 172.311 132.992 233.367 152.009Z" fill="#D9D9D9" stroke="black"/>
</mask>
<g mask="url(#mask1_16_115)">
<path d="M233.367 152.009C232.699 145.002 223.558 131.59 192.33 133.992C192.33 133.992 223.358 119.98 252.384 133.992C269.066 133.325 303.63 133.392 308.434 138.997C313.615 145.042 303.152 131.717 296.968 128.587C295.386 128.194 294.422 127.987 294.422 127.987C295.109 127.85 295.984 128.09 296.968 128.587C303.921 130.318 322.818 135.663 324.449 143.001C326.451 152.009 322.447 126.986 319.444 121.982C316.442 116.977 345.468 131.991 345.468 147.004C346.469 150.007 380.5 145.002 394.512 161.017C403.52 155.011 424.539 144.802 436.55 152.009L424.539 164.02C444.557 184.371 481.791 257.304 470.581 386.22C472.583 387.221 476.586 405.238 493.602 416.248C496.805 418.65 483.593 415.247 476.586 413.245C479.589 416.248 485.394 422.854 484.594 425.256C483.793 427.658 464.909 422.92 455.567 420.251C446.893 418.583 429.344 416.047 428.543 419.25C427.542 423.254 408.525 438.267 385.504 444.273C367.087 449.077 355.143 446.275 351.473 444.273C345.802 452.28 327.452 469.696 299.426 475.301C271.401 480.906 252.384 450.946 246.378 435.265C233.7 430.927 205.942 420.451 196.333 413.245C186.724 406.038 176.315 392.226 172.311 386.22C158.299 385.887 128.872 384.619 123.267 382.217C120.865 380.615 128.272 376.879 132.275 375.21C123.934 370.873 103.85 364.801 90.2373 375.21C86.2337 378.213 172.311 132.992 233.367 152.009Z" fill="#FEFEFE"/>
<path d="M228.362 372.208C226.76 348.987 257.055 320.494 272.402 309.151C278.808 301.144 293.754 268.447 300.427 253.1C292.42 239.755 275.605 212.263 272.402 209.06C269.199 205.857 243.709 212.397 231.365 216.067C221.356 229.078 209.545 253.501 206.342 251.098C203.139 248.696 115.927 331.504 72.2208 372.208L107.252 391.225L168.308 417.248C195.332 425.589 248.78 440.87 246.378 435.265C243.376 428.258 233.366 420.251 230.364 414.246C227.962 409.441 235.368 402.902 239.372 400.233C236.369 400.567 229.963 395.429 228.362 372.208Z" fill="#D78138"/>
<path d="M205.341 288.132C213.348 260.907 200.003 224.741 192.329 210.061C177.916 200.453 150.959 278.123 139.281 318.159C157.965 319.493 197.334 315.356 205.341 288.132Z" fill="#665858"/>
<path d="M228.362 223.073C231.452 228.223 214.683 247.762 206.342 254.101C199.136 252.5 187.325 186.707 182.32 154.011V117.978L268.398 121.982C280.743 126.319 302.229 135.594 289.417 137.996C273.403 140.999 274.404 176.03 278.407 179.033C302.429 193.446 305.432 222.072 305.432 237.086C303.432 269.082 284.118 299.081 270.441 310.118C270.414 310.141 270.4 310.152 270.4 310.152C270.414 310.141 270.428 310.129 270.441 310.118C271.062 309.598 278.513 302.681 285.413 265.111C292.62 225.876 271.067 213.398 259.39 212.063C249.047 214.732 225.359 218.068 228.362 223.073Z" fill="#C1C0BD"/>
<path d="M289.417 188.041C297.424 192.045 305.432 219.069 306.433 233.082C307.2 243.823 294.327 244.236 286.414 243.091C283.412 225.075 279.408 224.074 269.399 215.066C259.39 206.058 281.41 184.038 289.417 188.041Z" fill="#665858"/>
<path d="M387.506 192.045C389.107 206.458 372.159 218.068 363.484 222.072C371.491 222.072 390.709 225.075 403.52 237.086C419.535 252.099 425.54 308.15 426.541 301.144C427.542 294.137 427.542 200.052 405.522 189.042C394.838 183.7 417.942 183.264 434.548 170.025C445.322 161.436 444.983 142.772 454.566 136.995C416.532 138.663 342.265 142.2 349.471 143.001C358.48 144.002 385.504 174.029 387.506 192.045Z" fill="#C1C0BD"/>
<path d="M339.463 310.152C330.655 260.507 355.143 237.419 368.489 232.081C369.156 228.411 369.29 221.071 364.485 221.071C358.48 221.071 322.447 258.105 325.45 280.125C328.453 302.144 341.464 314.155 339.463 310.152Z" fill="#665858"/>
<path d="M338.462 263.109C338.462 260.577 356.478 225.075 363.484 222.072C409.926 221.271 423.539 260.106 425.54 299.142L468.579 348.186L522.628 404.237L517.624 439.268L370.491 461.288L352.474 445.274C353.475 445.941 356.878 445.474 362.483 438.267C368.088 431.061 364.152 421.252 361.482 417.248C367.488 412.244 379.499 400.834 379.499 395.229C381.501 324.164 344.467 317.158 338.462 310.152C332.456 303.145 338.462 267.113 338.462 263.109Z" fill="#D78138"/>
<path d="M377.497 263.109C356.678 259.906 355.477 299.142 357.479 319.16C356.478 324.164 372.492 345.183 374.494 343.182C376.496 341.18 380.499 344.182 384.503 345.183C388.507 346.184 402.519 374.21 411.527 363.2C420.536 352.19 429.544 355.192 433.547 353.191C437.551 351.189 463.575 391.225 469.58 383.218C475.585 375.21 464.575 243.091 458.57 228.077C453.766 216.067 425.874 203.055 412.528 198.05C418.534 207.058 428.543 292.135 426.541 299.142C424.94 304.747 418.867 305.481 415.531 304.146C411.527 291.802 398.316 266.312 377.497 263.109Z" fill="#D78138"/>
<path d="M233.367 152.009C232.699 145.002 223.558 131.59 192.33 133.992C192.33 133.992 223.358 119.98 252.384 133.992C269.066 133.325 303.63 133.392 308.434 138.997C314.44 146.003 299.426 126.986 294.422 127.987C294.422 127.987 322.447 133.993 324.449 143.001C326.451 152.009 322.447 126.986 319.444 121.982C316.442 116.977 345.468 131.991 345.468 147.004C346.469 150.007 380.5 145.002 394.512 161.017C403.52 155.011 424.539 144.802 436.55 152.009L424.539 164.02C444.557 184.371 481.791 257.304 470.581 386.22C472.583 387.221 476.586 405.238 493.602 416.248C496.805 418.65 483.593 415.247 476.586 413.245C479.589 416.248 485.394 422.854 484.594 425.256C483.793 427.658 464.909 422.92 455.567 420.251C446.893 418.583 429.344 416.047 428.543 419.25C427.542 423.254 408.525 438.267 385.504 444.273C367.087 449.077 355.143 446.275 351.473 444.273C345.802 452.28 327.452 469.696 299.426 475.301C271.401 480.906 252.384 450.946 246.378 435.265C233.7 430.928 205.942 420.451 196.333 413.245C186.724 406.038 176.315 392.226 172.311 386.22C158.299 385.887 128.872 384.619 123.267 382.217C120.865 380.615 128.272 376.879 132.275 375.21C123.934 370.873 103.85 364.801 90.2373 375.21C86.2337 378.213 172.311 132.992 233.367 152.009Z" stroke="black"/>
</g>
<mask id="mask2_16_115" style="mask-type:alpha" maskUnits="userSpaceOnUse" x="400" y="159" width="153" height="248">
<path d="M438.552 234.083C435.349 222.072 412.528 197.049 401.518 186.039C411.127 184.438 424.873 168.023 430.545 160.016C458.57 168.824 495.603 191.044 510.617 201.053H497.605C514.621 221.405 549.052 262.909 550.653 266.112C552.655 270.115 550.653 296.139 550.653 311.153C550.653 323.163 537.975 344.85 531.636 354.191C530.969 340.179 529.234 315.957 527.632 331.171C525.631 350.188 496.604 356.193 492.601 373.209C489.398 386.821 495.27 400.233 498.606 405.238C459.571 396.229 450.563 361.198 446.559 351.189C442.556 341.18 442.556 249.096 438.552 234.083Z" fill="#D9D9D9" stroke="black"/>
</mask>
<g mask="url(#mask2_16_115)">
<path d="M438.552 234.083C435.349 222.072 412.528 197.049 401.518 186.039C411.127 184.438 424.873 168.023 430.545 160.016C458.57 168.824 495.603 191.044 510.617 201.053H497.605C514.621 221.405 549.052 262.909 550.653 266.112C552.655 270.115 550.653 296.139 550.653 311.153C550.653 323.163 537.975 344.85 531.636 354.191C530.969 340.179 529.234 315.957 527.632 331.171C525.631 350.188 496.604 356.193 492.601 373.209C489.398 386.821 495.27 400.233 498.606 405.238C459.571 396.229 450.563 361.198 446.559 351.189C442.556 341.18 442.556 249.096 438.552 234.083Z" fill="#C1C0BD"/>
<path d="M530.635 301.144C537.842 296.339 527.632 267.113 521.627 253.1L554.629 279.308L565.667 343.182L483.593 432.262C470.581 412.244 445.358 367.003 448.561 346.184C451.764 325.365 473.25 320.161 483.593 320.161C481.924 323.831 480.99 330.37 490.599 327.167C502.61 323.163 507.614 312.153 510.617 307.149C513.62 302.144 507.614 263.109 513.62 268.114C529.634 283.127 521.627 307.149 530.635 301.144Z" fill="#665858"/>
<path d="M414.53 181.035C414.53 187.441 407.19 187.708 403.52 187.04C410.527 227.744 428.543 310.352 444.557 315.156C460.572 319.961 470.581 305.147 473.584 297.14C482.258 294.137 499.607 282.527 499.607 260.106C499.607 237.686 472.249 228.077 458.57 226.076C469.58 206.058 414.53 173.028 414.53 181.035Z" fill="#665858"/>
<path d="M438.552 234.083C435.349 222.072 412.528 197.049 401.518 186.039C411.127 184.438 424.873 168.023 430.545 160.016C458.57 168.824 495.603 191.044 510.617 201.053H497.605C514.621 221.405 549.052 262.909 550.653 266.112C552.655 270.115 550.653 296.139 550.653 311.153C550.653 323.163 537.975 344.85 531.636 354.191C530.969 340.179 529.234 315.957 527.632 331.171C525.631 350.188 496.604 356.193 492.601 373.209C489.398 386.821 495.27 400.233 498.606 405.238C459.571 396.229 450.563 361.198 446.559 351.189C442.556 341.18 442.556 249.096 438.552 234.083Z" stroke="black"/>
</g>
<mask id="mask3_16_115" style="mask-type:alpha" maskUnits="userSpaceOnUse" x="47" y="133" width="206" height="242">
<path d="M189.327 222.072C194.932 185.239 233.7 174.696 252.384 174.029V158.014L223.358 144.002C210.346 145.002 182.721 146.804 176.315 146.003C169.909 145.203 160.301 137.662 156.297 133.992C158.299 138.997 160.901 148.606 155.296 147.004C149.691 145.403 137.613 153.01 132.275 157.013C146.288 156.68 149.291 158.014 149.291 158.014C124.268 160.016 56.2065 233.082 52.2029 246.094C48.1992 259.105 45.1965 301.144 52.2029 285.129C59.2092 269.115 59.2092 272.117 60.2101 285.129C61.0108 295.538 72.5546 307.483 78.2264 312.153V289.133C78.56 283.795 80.028 276.922 83.2309 292.135C87.2345 311.153 103.249 312.153 103.249 329.169C103.249 342.781 91.9054 364.201 86.2336 373.209C96.9099 368.871 125.069 355.393 152.293 336.175C186.324 312.153 182.32 268.114 189.327 222.072Z" fill="#C1C0BD" stroke="black"/>
</mask>
<g mask="url(#mask3_16_115)">
<path d="M189.327 222.072C194.932 185.239 233.7 174.696 252.384 174.029V158.014L223.358 144.002C210.346 145.002 182.721 146.804 176.315 146.003C169.909 145.203 160.301 137.662 156.297 133.992C158.299 138.997 160.901 148.606 155.296 147.004C149.691 145.403 137.613 153.01 132.275 157.013C146.288 156.68 149.291 158.014 149.291 158.014C124.268 160.016 56.2065 233.082 52.2029 246.094C48.1992 259.105 45.1965 301.144 52.2029 285.129C59.2092 269.115 59.2092 272.117 60.2101 285.129C61.0108 295.538 72.5546 307.483 78.2264 312.153V289.133C78.56 283.795 80.028 276.922 83.2309 292.135C87.2345 311.153 103.249 312.153 103.249 329.169C103.249 342.781 91.9054 364.201 86.2336 373.209C96.9099 368.871 125.069 355.393 152.293 336.175C186.324 312.153 182.32 268.114 189.327 222.072Z" fill="#C1C0BD" stroke="black"/>
<path d="M119.822 300.143C107.811 286.53 114.817 273.785 119.822 269.115C123.679 264.11 119.822 259.106 109.813 259.106C100.683 259.106 87.4592 272.117 80.7865 282.126C78.4511 285.463 76.9831 295.138 89.7947 307.149C102.606 319.16 103.807 327.167 103.807 331.171H116.819C122.825 326.5 131.833 313.755 119.822 300.143Z" fill="#665858"/>
<path d="M107.391 204.202L97.3818 199.198C97.3818 199.198 95.38 199.948 94.3791 199.198C90.3755 196.195 52.3411 240.235 50.3393 248.242C45.3348 252.246 46.1975 309.151 48.1993 305.147C49.8008 301.944 54.872 284.462 57.2074 282.126C52.4031 299.742 71.6919 308.817 77.3637 314.155C78.031 303.813 72.5594 271.263 77.3637 275.267C82.1681 279.27 89.3746 262.255 92.3773 253.247C89.041 245.907 82.9688 229.825 85.371 224.22C87.7731 218.615 100.385 213.878 106.39 212.21L107.391 204.202Z" fill="#D78138"/>
<path d="M118.263 224.074C111.056 221.672 109.254 213.064 111.256 203.055C112.94 190.426 139.41 172.841 147.777 167.572C148.564 166.926 149.401 166.403 150.292 166.021C150.292 166.021 149.357 166.577 147.777 167.572C138.654 175.061 136.279 199.084 136.279 211.062C133.276 216.4 125.469 226.476 118.263 224.074Z" fill="#665858"/>
<path d="M252.384 174.029C233.7 174.696 194.932 185.239 189.327 222.072C182.32 268.114 186.324 312.153 152.293 336.175C125.069 355.393 96.9099 368.871 86.2336 373.209C91.9054 364.201 103.249 342.781 103.249 329.169C103.249 312.153 87.2345 311.153 83.2309 292.135C80.028 276.922 78.56 283.795 78.2264 289.133V312.153C72.5546 307.483 61.0108 295.538 60.2101 285.129C59.2092 272.117 59.2092 269.115 52.2029 285.129C45.1965 301.144 48.1992 259.106 52.2029 246.094C56.2065 233.082 124.268 160.016 149.291 158.014C149.291 158.014 146.288 156.68 132.275 157.013C137.613 153.01 149.691 145.403 155.296 147.004C160.901 148.606 158.299 138.997 156.297 133.992C160.301 137.662 169.909 145.203 176.315 146.003C182.721 146.804 210.346 145.002 223.358 144.002L252.384 158.014" stroke="black"/>
</g>
<rect x="232.909" y="144.766" width="34.0308" height="42.2762" transform="rotate(2.0938 232.909 144.766)" fill="#C1C0BD"/>
<rect x="423.006" y="163.019" width="4.00362" height="34.6619" transform="rotate(47.343 423.006 163.019)" fill="#C1C0BD"/>
<rect x="406.12" y="181.34" width="4.00362" height="9.46655" transform="rotate(65.8405 406.12 181.34)" fill="#C1C0BD"/>
<rect x="430.039" y="160.228" width="4.00362" height="34.4337" transform="rotate(47.343 430.039 160.228)" fill="#C1C0BD"/>
<path d="M303.443 404.977C257.611 428.782 230.071 389.107 222.031 366.294C220.02 364.971 216 363.517 216 368.278M303.443 404.977V390.099M303.443 404.977C318.184 417.21 355.506 431.757 386.865 392.082C388.875 391.091 392.695 390.495 391.89 396.05" stroke="black" stroke-width="2" stroke-linecap="round"/>
<path d="M338.108 347.884C330.199 338.92 299.88 339.396 285.71 340.754C280.767 341.772 277.405 349.922 279.778 353.996C282.744 359.089 279.778 367.239 294.608 369.276C295.596 367.239 298.562 371.313 294.608 373.35L283.733 374.369C285.71 383.537 301.528 389.649 306.471 390.667C324.267 392.705 332.835 384.895 336.13 380.481C333.165 380.821 326.442 380.685 323.278 377.425C320.115 374.165 322.619 371.313 324.267 370.294C324.926 373.35 328.221 378.24 336.13 373.35C346.017 367.239 341.074 350.94 338.108 347.884Z" fill="black"/>
<mask id="mask4_16_115" style="mask-type:alpha" maskUnits="userSpaceOnUse" x="216" y="268" width="50" height="49">
<path d="M265.395 294.137C265.395 312.379 256.194 316.157 242.375 316.157C228.555 316.157 216.351 312.379 216.351 294.137C216.351 275.895 228.555 268.114 242.375 268.114C256.194 268.114 265.395 275.895 265.395 294.137Z" fill="white"/>
</mask>
<g mask="url(#mask4_16_115)">
<path d="M265.395 294.137C265.395 312.379 256.194 316.157 242.375 316.157C228.555 316.157 216.351 312.379 216.351 294.137C216.351 275.895 228.555 268.114 242.375 268.114C256.194 268.114 265.395 275.895 265.395 294.137Z" fill="white"/>
<circle cx="243.376" cy="293.136" r="24.0217" fill="#00D0FF"/>
<path d="M251.383 296.139C251.383 302.22 246.453 307.149 240.373 307.149C234.292 307.149 229.363 302.22 229.363 296.139C229.363 290.058 234.292 285.129 240.373 285.129C246.453 285.129 251.383 290.058 251.383 296.139Z" fill="black"/>
<circle cx="240.373" cy="288.132" r="1.0009" fill="white"/>
<rect x="212.973" y="286.834" width="57.0525" height="31.0289" transform="rotate(9.71335 212.973 286.834)" fill="#C1C0BD" stroke="black"/>
<rect x="218.377" y="255.264" width="57.0525" height="31.0289" transform="rotate(9.71335 218.377 255.264)" fill="#C1C0BD" stroke="black"/>
</g>
<mask id="mask5_16_115" style="mask-type:alpha" maskUnits="userSpaceOnUse" x="359" y="287" width="51" height="47">
<ellipse cx="384.503" cy="310.152" rx="25.0226" ry="23.0208" fill="white"/>
</mask>
<g mask="url(#mask5_16_115)">
<ellipse cx="384.503" cy="310.152" rx="25.0226" ry="23.0208" fill="white"/>
<ellipse cx="383.502" cy="310.152" rx="22.0199" ry="25.0226" fill="#00D0FF"/>
<circle cx="382.501" cy="312.154" r="11.0099" fill="black"/>
<circle cx="384.503" cy="304.146" r="1.0009" fill="white"/>
<rect x="357.103" y="306.852" width="57.0525" height="31.0289" transform="rotate(9.71335 357.103 306.852)" fill="#C1C0BD" stroke="black"/>
<rect x="362.507" y="275.282" width="57.0525" height="31.0289" transform="rotate(9.71335 362.507 275.282)" fill="#C1C0BD" stroke="black"/>
</g>
<path d="M423.518 485.216L457.569 593.408L388.465 564.473L368.435 485.216C366.766 480.183 364.028 468.106 366.432 460.055C368.836 452.003 376.113 454.184 379.452 456.281C388.265 447.223 397.145 452.506 400.483 456.281C399.482 449.99 419.512 453.765 423.518 460.055C426.723 465.087 424.853 478.925 423.518 485.216Z" fill="#C1C0BD" stroke="black"/>
<path d="M386.505 562.38L445.558 566.383L456.568 594.409L392.51 580.396L386.505 562.38Z" fill="#C1C0BD"/>
<ellipse cx="374.533" cy="467.929" rx="4.00362" ry="6.00543" transform="rotate(-10.6343 374.533 467.929)" fill="#FE9598"/>
<ellipse cx="390.432" cy="463.862" rx="4.00362" ry="6.00543" transform="rotate(-9.36765 390.432 463.862)" fill="#FE9598"/>
<ellipse cx="410.94" cy="465.475" rx="4.00362" ry="6.00543" transform="rotate(2.71595 410.94 465.475)" fill="#FE9598"/>
<circle cx="395.856" cy="493.661" r="14.0127" transform="rotate(-10.6343 395.856 493.661)" fill="#FE9598"/>
<path d="M191.349 491.221L157.298 599.413L226.402 570.478L246.432 491.221C248.101 486.189 250.838 474.112 248.435 466.06C246.031 458.009 238.754 460.189 235.415 462.286C226.602 453.228 217.722 458.512 214.384 462.286C215.385 455.996 195.355 459.77 191.349 466.06C188.144 471.092 190.014 484.931 191.349 491.221Z" fill="#C1C0BD" stroke="black"/>
<path d="M228.362 568.385L169.308 572.389L158.298 600.414L222.356 586.401L228.362 568.385Z" fill="#C1C0BD"/>
<ellipse cx="201.338" cy="473.299" rx="4.00362" ry="6.00543" fill="#FE9598"/>
<ellipse cx="222.634" cy="470.058" rx="4.00362" ry="6.00543" transform="rotate(13.3502 222.634 470.058)" fill="#FE9598"/>
<ellipse cx="240.65" cy="472.059" rx="4.00362" ry="6.00543" transform="rotate(13.3502 240.65 472.059)" fill="#FE9598"/>
<ellipse cx="217.352" cy="497.321" rx="14.0127" ry="14.0127" fill="#FE9598"/>
</svg>
