<svg width="600" height="740" viewBox="0 0 600 740" fill="none" xmlns="http://www.w3.org/2000/svg">
<rect x="233.5" y="134.5" width="23" height="60" fill="#B1B1B1" stroke="black"/>
<rect x="359.5" y="134.5" width="23" height="60" fill="#B1B1B1" stroke="black"/>
<path d="M408.276 194.5C408.304 194.531 408.335 194.566 408.369 194.604C408.527 194.782 408.76 195.042 409.057 195.377C409.651 196.046 410.504 197.011 411.538 198.189C413.607 200.547 416.402 203.764 419.306 207.198C422.21 210.633 425.22 214.283 427.722 217.51C430.233 220.749 432.203 223.524 433.053 225.224L433.068 225.256L433.089 225.284C435.3 228.478 436.53 231.675 437.206 234.073C437.544 235.272 437.744 236.269 437.858 236.964C437.892 237.17 437.918 237.35 437.938 237.5H188.008C188.008 237.491 188.009 237.481 188.009 237.472C188.017 237.123 188.034 236.607 188.069 235.948C188.139 234.63 188.279 232.735 188.559 230.436C189.118 225.834 190.237 219.62 192.473 213.163C194.702 206.723 197.673 202.021 200.082 198.933C201.286 197.389 202.35 196.248 203.109 195.496C203.489 195.12 203.794 194.841 204.001 194.657C204.073 194.593 204.135 194.541 204.183 194.5H408.276Z" fill="#D9D9D9" stroke="black"/>
<line x1="140.986" y1="167.836" x2="141.986" y2="173.836" stroke="black" stroke-width="2"/>
<line x1="385.99" y1="171.141" x2="384.99" y2="178.141" stroke="black" stroke-width="2"/>
<circle cx="385" cy="179" r="2" fill="black"/>
<circle cx="142" cy="174" r="2" fill="black"/>
<line x1="304" y1="52" x2="304" y2="43" stroke="black" stroke-width="2"/>
<circle cx="304" cy="44" r="3" fill="black"/>
<line x1="12.5547" y1="189.832" x2="9.5547" y2="191.832" stroke="black" stroke-width="2"/>
<circle cx="9.5" cy="191.5" r="1.5" fill="black"/>
<line x1="567.555" y1="197.168" x2="573.555" y2="201.168" stroke="black" stroke-width="2"/>
<circle cx="573.5" cy="201.5" r="2.5" fill="black"/>
<mask id="mask0_37_2" style="mask-type:alpha" maskUnits="userSpaceOnUse" x="10" y="51" width="562" height="149">
<path d="M230 56.0001C164.4 62.8001 56.6667 148.833 11 191C73.8 171.8 123.5 167.667 140.5 168C273.7 156.4 359.333 165.5 385.5 171.5C434.3 165.9 527.833 186.5 568.5 197.5C538.5 161.667 468.4 86.3001 428 71.5001C377.5 53.0001 312 47.5001 230 56.0001Z" fill="white" stroke="black" stroke-width="2"/>
</mask>
<g mask="url(#mask0_37_2)">
<path d="M230 56.0001C164.4 62.8001 56.6667 148.833 11 191C73.8 171.8 123.5 167.667 140.5 168C273.7 156.4 359.333 165.5 385.5 171.5C434.3 165.9 527.833 186.5 568.5 197.5C538.5 161.667 468.4 86.3001 428 71.5001C377.5 53.0001 312 47.5001 230 56.0001Z" fill="#FF2F2F"/>
<path d="M6 48L236 35C236 35 205 74 182 112.5C159 151 118.5 193.506 118.5 193.506L6 198V48Z" fill="#3B16F4"/>
<path d="M446 65.5L579 48V196L367.5 189C367.5 189 417 145.5 425.5 113C434 80.5 446 65.5 446 65.5Z" fill="#FD53F2"/>
<path d="M230 56.0001C164.4 62.8001 56.6667 148.833 11 191C73.8 171.8 123.5 167.667 140.5 168C273.7 156.4 359.333 165.5 385.5 171.5C434.3 165.9 527.833 186.5 568.5 197.5C538.5 161.667 468.4 86.3001 428 71.5001C377.5 53.0001 312 47.5001 230 56.0001Z" stroke="black" stroke-width="2"/>
</g>
</svg>
