<svg width="600" height="740" viewBox="0 0 600 740" fill="none" xmlns="http://www.w3.org/2000/svg">
<mask id="mask0_40_338" style="mask-type:alpha" maskUnits="userSpaceOnUse" x="120" y="499" width="366" height="235">
<path d="M128.271 540.251L159.3 500.215C253.718 510.224 442.956 530.242 444.557 530.242C446.159 530.242 465.243 555.598 474.584 568.277C469.34 566.441 462.447 563.163 459.736 561.843C464.227 565.739 472.496 588.121 471.582 586.293C470.581 584.291 437.551 566.275 442.556 569.277C446.559 571.68 454.233 581.622 457.569 586.293L442.556 584.291C466.577 605.31 474.584 639.341 474.584 639.341C469.78 626.529 461.906 623.994 458.57 624.327C468.349 624.327 478.127 655.983 482.383 668.742C483.766 670.552 484.594 672.148 484.594 673.371C484.594 675.112 483.79 672.96 482.383 668.742C477.431 662.262 465.35 653.043 458.57 648.349C461.291 654.629 465.72 664.456 468.643 669.917C470.406 671.058 471.582 672.24 471.582 673.371C471.582 674.863 470.378 673.159 468.643 669.917C464.561 667.275 457.335 664.855 454.28 663.804C459.401 668.517 476.358 708.833 484.594 729.422C481.071 726.34 475.487 721.399 472.785 718.854C474.617 722.016 476.035 728.839 476.586 732.425L462.574 721.415C352.808 730.757 133.276 742.634 133.276 715.409C133.276 681.379 168.308 647.348 161.301 646.347C154.295 645.346 133.276 664.363 133.276 664.363C128.271 650.351 169.309 621.324 165.305 615.319C161.301 609.314 121.265 628.331 121.265 621.324C121.265 615.719 154.629 595.635 171.31 586.293H159.3C165.067 582.997 175.447 577.124 178.49 575.597C171.855 577.554 128.271 585.959 128.271 581.288C128.271 577.097 160.563 553.25 170.472 546.785C163.207 549.834 143.866 556.01 133.276 559.268C144.62 546.59 166.906 521.034 165.305 520.233C163.703 519.432 139.949 533.245 128.271 540.251Z" fill="#FEFEFE"/>
<path d="M159.3 500.215L128.271 540.251C139.949 533.245 163.703 519.432 165.305 520.233C166.906 521.034 144.62 546.59 133.276 559.268C146.288 555.265 172.511 546.857 173.312 545.256C174.313 543.254 128.271 576.284 128.271 581.288C128.271 586.293 178.317 576.284 179.318 575.283C180.118 574.482 166.306 582.289 159.3 586.293H171.31C154.629 595.635 121.265 615.719 121.265 621.324C121.265 628.331 161.301 609.314 165.305 615.319C169.309 621.324 128.271 650.351 133.276 664.363C133.276 664.363 154.295 645.346 161.301 646.347C168.308 647.348 133.276 681.379 133.276 715.409C133.276 742.634 352.808 730.757 462.574 721.415L476.586 732.425C475.919 728.088 473.984 719.013 471.582 717.411C469.18 715.81 479.255 724.751 484.593 729.422C475.919 707.736 457.569 664.163 453.565 663.362C448.561 662.362 471.582 668.367 471.582 673.371C471.582 677.375 462.907 658.358 458.57 648.349C467.244 654.354 484.593 667.766 484.593 673.371C484.593 680.378 471.582 624.327 458.57 624.327C461.906 623.994 469.78 626.529 474.584 639.341C474.584 639.341 466.577 605.31 442.556 584.291L457.569 586.293C454.233 581.622 446.559 571.68 442.556 569.277C437.551 566.275 470.581 584.291 471.582 586.293C472.583 588.295 462.574 561.27 458.57 561.27C458.57 561.27 467.912 565.941 474.584 568.277C465.243 555.598 446.159 530.242 444.557 530.242C442.956 530.242 253.718 510.224 159.3 500.215Z" stroke="black"/>
</mask>
<g mask="url(#mask0_40_338)">
<path d="M128.271 540.251L159.3 500.215C253.718 510.224 442.956 530.242 444.557 530.242C446.159 530.242 465.243 555.598 474.584 568.277C469.34 566.441 462.447 563.163 459.736 561.843C464.227 565.739 472.496 588.121 471.582 586.293C470.581 584.291 437.551 566.275 442.556 569.277C446.559 571.68 454.233 581.622 457.569 586.293L442.556 584.291C466.577 605.31 474.584 639.341 474.584 639.341C469.78 626.529 461.906 623.994 458.57 624.327C468.349 624.327 478.127 655.983 482.383 668.742C483.766 670.552 484.594 672.148 484.594 673.371C484.594 675.112 483.79 672.96 482.383 668.742C477.431 662.262 465.35 653.043 458.57 648.349C461.291 654.629 465.72 664.456 468.643 669.917C470.406 671.058 471.582 672.24 471.582 673.371C471.582 674.863 470.378 673.159 468.643 669.917C464.561 667.275 457.335 664.855 454.28 663.804C459.401 668.517 476.358 708.833 484.594 729.422C481.071 726.34 475.487 721.399 472.785 718.854C474.617 722.016 476.035 728.839 476.586 732.425L462.574 721.415C352.808 730.757 133.276 742.634 133.276 715.409C133.276 681.379 168.308 647.348 161.301 646.347C154.295 645.346 133.276 664.363 133.276 664.363C128.271 650.351 169.309 621.324 165.305 615.319C161.301 609.314 121.265 628.331 121.265 621.324C121.265 615.719 154.629 595.635 171.31 586.293H159.3C165.067 582.997 175.447 577.124 178.49 575.597C171.855 577.554 128.271 585.959 128.271 581.288C128.271 577.097 160.563 553.25 170.472 546.785C163.207 549.834 143.866 556.01 133.276 559.268C144.62 546.59 166.906 521.034 165.305 520.233C163.703 519.432 139.949 533.245 128.271 540.251Z" fill="#FEFEFE"/>
<path d="M159.3 500.215L128.271 540.251C139.949 533.245 163.703 519.432 165.305 520.233C166.906 521.034 144.62 546.59 133.276 559.268C146.288 555.265 172.511 546.857 173.312 545.256C174.313 543.254 128.271 576.284 128.271 581.288C128.271 586.293 178.317 576.284 179.318 575.283C180.118 574.482 166.306 582.289 159.3 586.293H171.31C154.629 595.635 121.265 615.719 121.265 621.324C121.265 628.331 161.301 609.314 165.305 615.319C169.309 621.324 128.271 650.351 133.276 664.363C133.276 664.363 154.295 645.346 161.301 646.347C168.308 647.348 133.276 681.379 133.276 715.409C133.276 742.634 352.808 730.757 462.574 721.415L476.586 732.425C475.919 728.088 473.984 719.013 471.582 717.411C469.18 715.81 479.255 724.751 484.593 729.422C475.919 707.736 457.569 664.163 453.565 663.362C448.561 662.362 471.582 668.367 471.582 673.371C471.582 677.375 462.907 658.358 458.57 648.349C467.244 654.354 484.593 667.766 484.593 673.371C484.593 680.378 471.582 624.327 458.57 624.327C461.906 623.994 469.78 626.529 474.584 639.341C474.584 639.341 466.577 605.31 442.556 584.291L457.569 586.293C454.233 581.622 446.559 571.68 442.556 569.277C437.551 566.275 470.581 584.291 471.582 586.293C472.583 588.295 462.574 561.27 458.57 561.27C458.57 561.27 467.912 565.941 474.584 568.277C465.243 555.598 446.159 530.242 444.557 530.242C442.956 530.242 253.718 510.224 159.3 500.215Z" stroke="black"/>
<path d="M160.3 616.32C162.703 611.516 203.339 604.976 223.357 602.307C216.952 634.336 230.03 662.362 237.37 672.371C235.769 663.563 239.372 649.35 241.374 643.344C236.569 673.772 258.723 701.397 270.4 711.406C266.516 698.976 277.391 676.121 283.832 665.325C284.018 665.003 284.212 664.683 284.413 664.363C284.223 664.672 284.03 664.993 283.832 665.325C268.245 692.21 303.536 726.396 312.438 724.418C338.061 717.211 371.491 649.35 371.491 649.35C374.694 654.154 368.822 670.035 365.486 677.375C387.506 657.357 393.511 628.331 393.511 628.331C397.515 632.334 393.511 643.344 393.511 643.344C398.516 637.339 408.525 605.31 408.525 605.31C410.527 605.31 414.53 616.32 414.53 616.32C418.534 616.32 423.538 581.288 420.536 575.283C422.938 571.279 433.547 576.951 438.552 580.287L448.561 588.295L501.609 596.302V764.454L101.247 745.437L113.258 635.337C127.938 631 157.898 621.124 160.3 616.32Z" fill="#C1C0BD"/>
<path d="M223.357 602.307C203.339 604.976 162.703 611.516 160.3 616.32C157.898 621.124 127.938 631 113.258 635.337L101.247 745.437L501.609 764.454V596.302L448.561 588.295L438.552 580.287C433.547 576.951 422.938 571.279 420.536 575.283C423.538 581.288 418.534 616.32 414.53 616.32C414.53 616.32 410.527 605.31 408.525 605.31C408.525 605.31 398.516 637.339 393.511 643.344C393.511 643.344 397.515 632.334 393.511 628.331C393.511 628.331 387.506 657.357 365.486 677.375C368.822 670.035 374.694 654.154 371.491 649.35C371.491 649.35 338.061 717.211 312.438 724.418C303.43 726.419 267.397 691.388 284.413 664.363C278.074 674.706 266.396 698.594 270.4 711.406C258.723 701.397 236.569 673.772 241.374 643.344C239.372 649.35 235.769 663.563 237.37 672.371C230.03 662.362 216.952 634.336 223.357 602.307Z" stroke="black"/>
<path d="M159.3 500.215L128.271 540.251C139.949 533.245 163.703 519.432 165.305 520.233C166.906 521.034 144.62 546.59 133.276 559.268C146.288 555.265 172.511 546.857 173.312 545.256C174.313 543.254 128.271 576.284 128.271 581.288C128.271 586.293 178.317 576.284 179.318 575.283C180.118 574.482 166.306 582.289 159.3 586.293H171.31C154.629 595.635 121.265 615.719 121.265 621.324C121.265 628.331 161.301 609.314 165.305 615.319C169.309 621.324 128.271 650.351 133.276 664.363C133.276 664.363 154.295 645.346 161.301 646.347C168.308 647.348 133.276 681.379 133.276 715.409C133.276 742.634 352.808 730.757 462.574 721.415L476.586 732.425C475.919 728.088 473.984 719.013 471.582 717.411C469.18 715.81 479.255 724.751 484.593 729.422C475.919 707.736 457.569 664.163 453.565 663.362C448.561 662.362 471.582 668.367 471.582 673.371C471.582 677.375 462.907 658.358 458.57 648.349C467.244 654.354 484.593 667.766 484.593 673.371C484.593 680.378 471.582 624.327 458.57 624.327C461.906 623.994 469.78 626.529 474.584 639.341C474.584 639.341 466.577 605.31 442.556 584.291L457.569 586.293C454.233 581.622 446.559 571.68 442.556 569.277C437.551 566.275 470.581 584.291 471.582 586.293C472.583 588.295 462.574 561.27 458.57 561.27C458.57 561.27 467.912 565.941 474.584 568.277C465.243 555.598 446.159 530.242 444.557 530.242C442.956 530.242 253.718 510.224 159.3 500.215Z" stroke="black"/>
</g>
<mask id="mask1_40_338" style="mask-type:alpha" maskUnits="userSpaceOnUse" x="89" y="240" width="406" height="357">
<path d="M233.367 272.009C232.699 265.002 223.558 251.59 192.33 253.992C192.33 253.992 223.358 239.98 252.384 253.992C269.066 253.325 303.63 253.392 308.434 258.997C313.615 265.042 303.152 251.717 296.968 248.587C295.386 248.194 294.422 247.987 294.422 247.987C295.109 247.85 295.984 248.09 296.968 248.587C303.921 250.318 322.818 255.663 324.449 263.001C326.451 272.009 322.447 246.986 319.444 241.982C316.442 236.977 345.468 251.991 345.468 267.004C346.469 270.007 380.5 265.002 394.512 281.017C403.52 275.011 424.539 264.802 436.55 272.009L424.539 284.02C444.557 304.371 481.791 377.304 470.581 506.22C472.583 507.221 476.586 525.238 493.602 536.248C496.805 538.65 483.593 535.247 476.586 533.245C479.589 536.248 485.394 542.854 484.594 545.256C483.793 547.658 464.909 542.92 455.567 540.251C446.893 538.583 429.344 536.047 428.543 539.25C427.542 543.254 408.525 558.267 385.504 564.273C367.087 569.077 355.143 566.275 351.473 564.273C345.802 572.28 327.452 589.696 299.426 595.301C271.401 600.906 252.384 570.946 246.378 555.265C233.7 550.927 205.942 540.451 196.333 533.245C186.724 526.038 176.315 512.226 172.311 506.22C158.299 505.887 128.872 504.619 123.267 502.217C120.865 500.615 128.272 496.879 132.275 495.21C123.934 490.873 103.85 484.801 90.2373 495.21C86.2337 498.213 172.311 252.992 233.367 272.009Z" fill="#D9D9D9"/>
<path d="M233.367 272.009C232.699 265.002 223.558 251.59 192.33 253.992C192.33 253.992 223.358 239.98 252.384 253.992C269.066 253.325 303.63 253.392 308.434 258.997C314.44 266.003 299.426 246.986 294.422 247.987C294.422 247.987 322.447 253.993 324.449 263.001C326.451 272.009 322.447 246.986 319.444 241.982C316.442 236.977 345.468 251.991 345.468 267.004C346.469 270.007 380.5 265.002 394.512 281.017C403.52 275.011 424.539 264.802 436.55 272.009L424.539 284.02C444.557 304.371 481.791 377.304 470.581 506.22C472.583 507.221 476.586 525.238 493.602 536.248C496.805 538.65 483.593 535.247 476.586 533.245C479.589 536.248 485.394 542.854 484.594 545.256C483.793 547.658 464.909 542.92 455.567 540.251C446.893 538.583 429.344 536.047 428.543 539.25C427.542 543.254 408.525 558.267 385.504 564.273C367.087 569.077 355.143 566.275 351.473 564.273C345.802 572.28 327.452 589.696 299.426 595.301C271.401 600.906 252.384 570.946 246.378 555.265C233.7 550.928 205.942 540.451 196.333 533.245C186.724 526.038 176.315 512.226 172.311 506.22C158.299 505.887 128.872 504.619 123.267 502.217C120.865 500.615 128.272 496.879 132.275 495.21C123.934 490.873 103.85 484.801 90.2373 495.21C86.2337 498.213 172.311 252.992 233.367 272.009Z" stroke="black"/>
</mask>
<g mask="url(#mask1_40_338)">
<path d="M233.367 272.009C232.699 265.002 223.558 251.59 192.33 253.992C192.33 253.992 223.358 239.98 252.384 253.992C269.066 253.325 303.63 253.392 308.434 258.997C313.615 265.042 303.152 251.717 296.968 248.587C295.386 248.194 294.422 247.987 294.422 247.987C295.109 247.85 295.984 248.09 296.968 248.587C303.921 250.318 322.818 255.663 324.449 263.001C326.451 272.009 322.447 246.986 319.444 241.982C316.442 236.977 345.468 251.991 345.468 267.004C346.469 270.007 380.5 265.002 394.512 281.017C403.52 275.011 424.539 264.802 436.55 272.009L424.539 284.02C444.557 304.371 481.791 377.304 470.581 506.22C472.583 507.221 476.586 525.238 493.602 536.248C496.805 538.65 483.593 535.247 476.586 533.245C479.589 536.248 485.394 542.854 484.594 545.256C483.793 547.658 464.909 542.92 455.567 540.251C446.893 538.583 429.344 536.047 428.543 539.25C427.542 543.254 408.525 558.267 385.504 564.273C367.087 569.077 355.143 566.275 351.473 564.273C345.802 572.28 327.452 589.696 299.426 595.301C271.401 600.906 252.384 570.946 246.378 555.265C233.7 550.927 205.942 540.451 196.333 533.245C186.724 526.038 176.315 512.226 172.311 506.22C158.299 505.887 128.872 504.619 123.267 502.217C120.865 500.615 128.272 496.879 132.275 495.21C123.934 490.873 103.85 484.801 90.2373 495.21C86.2337 498.213 172.311 252.992 233.367 272.009Z" fill="#FEFEFE"/>
<path d="M228.362 492.208C226.761 468.987 257.055 440.494 272.402 429.151C278.808 421.144 293.754 388.447 300.427 373.1C292.42 359.755 275.605 332.263 272.402 329.06C269.199 325.857 243.709 332.397 231.365 336.067C221.356 349.078 209.545 373.501 206.342 371.098C203.139 368.696 115.927 451.504 72.2209 492.208L107.253 511.225L168.308 537.248C195.332 545.589 248.781 560.87 246.378 555.265C243.376 548.258 233.367 540.251 230.364 534.246C227.962 529.441 235.368 522.902 239.372 520.233C236.369 520.567 229.964 515.429 228.362 492.208Z" fill="#D78138"/>
<path d="M205.341 408.132C213.348 380.907 200.003 344.741 192.329 330.061C177.916 320.453 150.959 398.123 139.281 438.159C157.965 439.493 197.334 435.356 205.341 408.132Z" fill="#665858"/>
<path d="M228.362 343.073C231.452 348.223 214.683 367.762 206.342 374.101C199.136 372.5 187.325 306.707 182.32 274.011V237.978L268.398 241.982C280.743 246.319 302.229 255.594 289.417 257.996C273.403 260.999 274.404 296.03 278.407 299.033C302.429 313.446 305.432 342.072 305.432 357.086C303.432 389.082 284.118 419.081 270.441 430.118C270.414 430.141 270.4 430.152 270.4 430.152C270.414 430.141 270.428 430.129 270.441 430.118C271.062 429.598 278.513 422.681 285.413 385.111C292.62 345.875 271.067 333.398 259.39 332.063C249.047 334.732 225.359 338.068 228.362 343.073Z" fill="#C1C0BD"/>
<path d="M289.417 308.041C297.424 312.045 305.432 339.069 306.433 353.082C307.2 363.823 294.327 364.236 286.414 363.091C283.412 345.075 279.408 344.074 269.399 335.066C259.39 326.058 281.41 304.038 289.417 308.041Z" fill="#665858"/>
<path d="M387.506 312.045C389.107 326.458 372.159 338.068 363.484 342.072C371.491 342.072 390.709 345.075 403.52 357.086C419.535 372.099 425.54 428.15 426.541 421.144C427.542 414.137 427.542 320.052 405.522 309.042C394.838 303.7 417.942 303.264 434.548 290.025C445.322 281.436 444.983 262.772 454.566 256.995C416.532 258.663 342.265 262.2 349.471 263.001C358.48 264.001 385.504 294.029 387.506 312.045Z" fill="#C1C0BD"/>
<path d="M339.463 430.152C330.655 380.507 355.143 357.419 368.489 352.081C369.156 348.411 369.289 341.071 364.485 341.071C358.48 341.071 322.447 378.105 325.45 400.125C328.453 422.144 341.464 434.155 339.463 430.152Z" fill="#665858"/>
<path d="M338.462 383.109C338.462 380.577 356.478 345.075 363.484 342.072C409.926 341.271 423.538 380.106 425.54 419.142L468.579 468.186L522.628 524.237L517.623 559.268L370.49 581.288L352.474 565.274C353.475 565.941 356.878 565.474 362.483 558.267C368.088 551.061 364.151 541.252 361.482 537.248C367.488 532.244 379.499 520.834 379.499 515.229C381.5 444.164 344.467 437.158 338.462 430.152C332.456 423.145 338.462 387.113 338.462 383.109Z" fill="#D78138"/>
<path d="M377.497 383.109C356.678 379.906 355.477 419.142 357.479 439.16C356.478 444.164 372.492 465.183 374.494 463.182C376.496 461.18 380.499 464.182 384.503 465.183C388.507 466.184 402.519 494.21 411.527 483.2C420.536 472.19 429.544 475.192 433.547 473.191C437.551 471.189 463.575 511.225 469.58 503.218C475.585 495.21 464.575 363.091 458.57 348.077C453.766 336.067 425.874 323.055 412.528 318.05C418.534 327.058 428.543 412.135 426.541 419.142C424.94 424.747 418.867 425.481 415.531 424.146C411.527 411.802 398.316 386.312 377.497 383.109Z" fill="#D78138"/>
<path d="M233.367 272.009C232.699 265.002 223.558 251.59 192.33 253.992C192.33 253.992 223.358 239.98 252.384 253.992C269.066 253.325 303.63 253.392 308.434 258.997C314.44 266.003 299.426 246.986 294.422 247.987C294.422 247.987 322.447 253.993 324.449 263.001C326.451 272.009 322.447 246.986 319.444 241.982C316.442 236.977 345.468 251.991 345.468 267.004C346.469 270.007 380.5 265.002 394.512 281.017C403.52 275.011 424.539 264.802 436.55 272.009L424.539 284.02C444.557 304.371 481.791 377.304 470.581 506.22C472.583 507.221 476.586 525.238 493.602 536.248C496.805 538.65 483.593 535.247 476.586 533.245C479.589 536.248 485.394 542.854 484.594 545.256C483.793 547.658 464.909 542.92 455.567 540.251C446.893 538.583 429.344 536.047 428.543 539.25C427.542 543.254 408.525 558.267 385.504 564.273C367.087 569.077 355.143 566.275 351.473 564.273C345.802 572.28 327.452 589.696 299.426 595.301C271.401 600.906 252.384 570.946 246.378 555.265C233.7 550.928 205.942 540.451 196.333 533.245C186.724 526.038 176.315 512.226 172.311 506.22C158.299 505.887 128.872 504.619 123.267 502.217C120.865 500.615 128.272 496.879 132.275 495.21C123.934 490.873 103.85 484.801 90.2373 495.21C86.2337 498.213 172.311 252.992 233.367 272.009Z" stroke="black"/>
</g>
<mask id="mask2_40_338" style="mask-type:alpha" maskUnits="userSpaceOnUse" x="400" y="279" width="153" height="248">
<path d="M438.552 354.083C435.349 342.072 412.529 317.049 401.519 306.039C411.127 304.438 424.873 288.023 430.545 280.016C458.57 288.824 495.604 311.044 510.617 321.053H497.605C514.621 341.405 549.052 382.909 550.653 386.112C552.655 390.115 550.653 416.139 550.653 431.153C550.653 443.163 537.975 464.85 531.636 474.191C530.969 460.179 529.234 435.957 527.633 451.171C525.631 470.188 496.604 476.193 492.601 493.209C489.398 506.821 495.27 520.233 498.606 525.238C459.571 516.229 450.563 481.198 446.559 471.189C442.556 461.18 442.556 369.096 438.552 354.083Z" fill="#D9D9D9" stroke="black"/>
</mask>
<g mask="url(#mask2_40_338)">
<path d="M438.552 354.083C435.349 342.072 412.529 317.049 401.519 306.039C411.127 304.438 424.873 288.023 430.545 280.016C458.57 288.824 495.604 311.044 510.617 321.053H497.605C514.621 341.405 549.052 382.909 550.653 386.112C552.655 390.115 550.653 416.139 550.653 431.153C550.653 443.163 537.975 464.85 531.636 474.191C530.969 460.179 529.234 435.957 527.633 451.171C525.631 470.188 496.604 476.193 492.601 493.209C489.398 506.821 495.27 520.233 498.606 525.238C459.571 516.229 450.563 481.198 446.559 471.189C442.556 461.18 442.556 369.096 438.552 354.083Z" fill="#C1C0BD"/>
<path d="M530.635 421.144C537.842 416.339 527.633 387.113 521.627 373.1L554.629 399.308L565.667 463.182L483.593 552.262C470.581 532.244 445.358 487.003 448.561 466.184C451.764 445.365 473.25 440.161 483.593 440.161C481.925 443.831 480.99 450.37 490.599 447.167C502.61 443.163 507.614 432.153 510.617 427.149C513.62 422.144 507.614 383.109 513.62 388.114C529.634 403.127 521.627 427.149 530.635 421.144Z" fill="#665858"/>
<path d="M414.53 301.035C414.53 307.441 407.19 307.708 403.521 307.04C410.527 347.744 428.543 430.352 444.558 435.156C460.572 439.961 470.581 425.147 473.584 417.14C482.258 414.137 499.607 402.527 499.607 380.106C499.607 357.686 472.249 348.077 458.57 346.076C469.58 326.058 414.53 293.028 414.53 301.035Z" fill="#665858"/>
<path d="M438.552 354.083C435.349 342.072 412.529 317.049 401.519 306.039C411.127 304.438 424.873 288.023 430.545 280.016C458.57 288.824 495.604 311.044 510.617 321.053H497.605C514.621 341.405 549.052 382.909 550.653 386.112C552.655 390.115 550.653 416.139 550.653 431.153C550.653 443.163 537.975 464.85 531.636 474.191C530.969 460.179 529.234 435.957 527.633 451.171C525.631 470.188 496.604 476.193 492.601 493.209C489.398 506.821 495.27 520.233 498.606 525.238C459.571 516.229 450.563 481.198 446.559 471.189C442.556 461.18 442.556 369.096 438.552 354.083Z" stroke="black"/>
</g>
<mask id="mask3_40_338" style="mask-type:alpha" maskUnits="userSpaceOnUse" x="47" y="253" width="206" height="242">
<path d="M189.327 342.072C194.932 305.239 233.7 294.696 252.384 294.029V278.014L223.358 264.001C210.346 265.002 182.721 266.804 176.315 266.003C169.909 265.203 160.301 257.662 156.297 253.992C158.299 258.997 160.901 268.606 155.296 267.004C149.691 265.403 137.613 273.01 132.275 277.013C146.288 276.68 149.291 278.014 149.291 278.014C124.268 280.016 56.2065 353.082 52.2029 366.094C48.1992 379.105 45.1965 421.144 52.2029 405.129C59.2092 389.115 59.2092 392.117 60.2101 405.129C61.0108 415.538 72.5546 427.483 78.2264 432.153V409.133C78.56 403.794 80.028 396.922 83.2309 412.135C87.2345 431.153 103.249 432.153 103.249 449.169C103.249 462.781 91.9054 484.201 86.2336 493.209C96.9099 488.871 125.069 475.393 152.293 456.175C186.324 432.153 182.32 388.114 189.327 342.072Z" fill="#C1C0BD" stroke="black"/>
</mask>
<g mask="url(#mask3_40_338)">
<path d="M189.327 342.072C194.932 305.239 233.7 294.696 252.384 294.029V278.014L223.358 264.001C210.346 265.002 182.721 266.804 176.315 266.003C169.909 265.203 160.301 257.662 156.297 253.992C158.299 258.997 160.901 268.606 155.296 267.004C149.691 265.403 137.613 273.01 132.275 277.013C146.288 276.68 149.291 278.014 149.291 278.014C124.268 280.016 56.2065 353.082 52.2029 366.094C48.1992 379.105 45.1965 421.144 52.2029 405.129C59.2092 389.115 59.2092 392.117 60.2101 405.129C61.0108 415.538 72.5546 427.483 78.2264 432.153V409.133C78.56 403.794 80.028 396.922 83.2309 412.135C87.2345 431.153 103.249 432.153 103.249 449.169C103.249 462.781 91.9054 484.201 86.2336 493.209C96.9099 488.871 125.069 475.393 152.293 456.175C186.324 432.153 182.32 388.114 189.327 342.072Z" fill="#C1C0BD" stroke="black"/>
<path d="M119.822 420.143C107.811 406.53 114.817 393.785 119.822 389.115C123.679 384.11 119.822 379.106 109.813 379.106C100.683 379.106 87.4593 392.117 80.7867 402.126C78.4512 405.463 76.9832 415.138 89.7948 427.149C102.606 439.16 103.807 447.167 103.807 451.171H116.819C122.825 446.5 131.833 433.755 119.822 420.143Z" fill="#665858"/>
<path d="M107.391 324.202L97.3818 319.198C97.3818 319.198 95.38 319.948 94.3791 319.198C90.3755 316.195 52.3411 360.235 50.3393 368.242C45.3348 372.246 46.1975 429.151 48.1993 425.147C49.8008 421.944 54.872 404.462 57.2074 402.126C52.4031 419.742 71.6919 428.817 77.3637 434.155C78.031 423.813 72.5594 391.263 77.3637 395.267C82.1681 399.27 89.3746 382.255 92.3773 373.247C89.041 365.907 82.9688 349.825 85.371 344.22C87.7731 338.615 100.385 333.878 106.39 332.21L107.391 324.202Z" fill="#D78138"/>
<path d="M118.262 344.074C111.056 341.672 109.254 333.064 111.256 323.055C112.94 310.426 139.409 292.841 147.777 287.572C148.564 286.926 149.401 286.403 150.291 286.021C150.291 286.021 149.357 286.577 147.777 287.572C138.654 295.061 136.279 319.084 136.279 331.062C133.276 336.4 125.469 346.476 118.262 344.074Z" fill="#665858"/>
<path d="M252.384 294.029C233.7 294.696 194.932 305.239 189.327 342.072C182.32 388.114 186.324 432.153 152.293 456.175C125.069 475.393 96.9099 488.871 86.2336 493.209C91.9054 484.2 103.249 462.781 103.249 449.169C103.249 432.153 87.2345 431.153 83.2309 412.135C80.028 396.922 78.56 403.794 78.2264 409.133V432.153C72.5546 427.483 61.0108 415.538 60.2101 405.129C59.2092 392.117 59.2092 389.115 52.2029 405.129C45.1965 421.144 48.1992 379.105 52.2029 366.094C56.2065 353.082 124.268 280.016 149.291 278.014C149.291 278.014 146.288 276.68 132.275 277.013C137.613 273.01 149.691 265.403 155.296 267.004C160.901 268.606 158.299 258.997 156.297 253.992C160.301 257.662 169.909 265.203 176.315 266.003C182.721 266.804 210.346 265.002 223.358 264.001L252.384 278.014" stroke="black"/>
</g>
<rect x="232.909" y="264.766" width="34.0308" height="42.2762" transform="rotate(2.0938 232.909 264.766)" fill="#C1C0BD"/>
<rect x="423.006" y="283.019" width="4.00362" height="34.6619" transform="rotate(47.343 423.006 283.019)" fill="#C1C0BD"/>
<rect x="406.121" y="301.34" width="4.00362" height="9.46655" transform="rotate(65.8405 406.121 301.34)" fill="#C1C0BD"/>
<rect x="430.039" y="280.228" width="4.00362" height="34.4337" transform="rotate(47.343 430.039 280.228)" fill="#C1C0BD"/>
<path d="M303.443 524.977C257.611 548.782 230.071 509.107 222.031 486.294C220.02 484.971 216 483.517 216 488.278M303.443 524.977V510.099M303.443 524.977C318.184 537.21 355.506 551.757 386.865 512.082C388.875 511.091 392.695 510.495 391.89 516.05" stroke="black" stroke-width="2" stroke-linecap="round"/>
<path d="M338.108 467.884C330.199 458.92 299.88 459.396 285.71 460.754C280.767 461.772 277.405 469.922 279.778 473.996C282.744 479.089 279.778 487.239 294.608 489.276C295.596 487.239 298.562 491.313 294.608 493.35L283.733 494.369C285.71 503.537 301.528 509.649 306.471 510.667C324.267 512.705 332.835 504.895 336.13 500.481C333.165 500.821 326.442 500.685 323.278 497.425C320.115 494.165 322.619 491.313 324.267 490.294C324.926 493.35 328.221 498.24 336.13 493.35C346.017 487.239 341.074 470.94 338.108 467.884Z" fill="black"/>
<mask id="mask4_40_338" style="mask-type:alpha" maskUnits="userSpaceOnUse" x="216" y="388" width="50" height="49">
<path d="M265.395 414.137C265.395 432.379 256.194 436.157 242.375 436.157C228.555 436.157 216.351 432.379 216.351 414.137C216.351 395.895 228.555 388.114 242.375 388.114C256.194 388.114 265.395 395.895 265.395 414.137Z" fill="white"/>
</mask>
<g mask="url(#mask4_40_338)">
<path d="M265.395 414.137C265.395 432.379 256.194 436.157 242.375 436.157C228.555 436.157 216.351 432.379 216.351 414.137C216.351 395.895 228.555 388.114 242.375 388.114C256.194 388.114 265.395 395.895 265.395 414.137Z" fill="white"/>
<circle cx="243.375" cy="413.136" r="24.0217" fill="#00D0FF"/>
<path d="M251.383 416.139C251.383 422.22 246.453 427.149 240.373 427.149C234.292 427.149 229.363 422.22 229.363 416.139C229.363 410.058 234.292 405.129 240.373 405.129C246.453 405.129 251.383 410.058 251.383 416.139Z" fill="black"/>
<circle cx="240.373" cy="408.132" r="1.0009" fill="white"/>
<rect x="212.973" y="406.834" width="57.0525" height="31.0289" transform="rotate(9.71335 212.973 406.834)" fill="#C1C0BD" stroke="black"/>
<rect x="218.377" y="375.264" width="57.0525" height="31.0289" transform="rotate(9.71335 218.377 375.264)" fill="#C1C0BD" stroke="black"/>
</g>
<mask id="mask5_40_338" style="mask-type:alpha" maskUnits="userSpaceOnUse" x="359" y="407" width="51" height="47">
<ellipse cx="384.503" cy="430.152" rx="25.0226" ry="23.0208" fill="white"/>
</mask>
<g mask="url(#mask5_40_338)">
<ellipse cx="384.503" cy="430.152" rx="25.0226" ry="23.0208" fill="white"/>
<ellipse cx="383.502" cy="430.152" rx="22.0199" ry="25.0226" fill="#00D0FF"/>
<circle cx="382.501" cy="432.154" r="11.0099" fill="black"/>
<circle cx="384.503" cy="424.146" r="1.0009" fill="white"/>
<rect x="357.103" y="426.852" width="57.0525" height="31.0289" transform="rotate(9.71335 357.103 426.852)" fill="#C1C0BD" stroke="black"/>
<rect x="362.507" y="395.282" width="57.0525" height="31.0289" transform="rotate(9.71335 362.507 395.282)" fill="#C1C0BD" stroke="black"/>
</g>
<path d="M423.518 605.216L457.569 713.408L388.465 684.473L368.435 605.216C366.766 600.183 364.028 588.106 366.432 580.055C368.836 572.003 376.113 574.184 379.452 576.281C388.265 567.223 397.145 572.506 400.483 576.281C399.482 569.99 419.512 573.765 423.518 580.055C426.723 585.087 424.853 598.925 423.518 605.216Z" fill="#C1C0BD" stroke="black"/>
<path d="M386.505 682.38L445.558 686.383L456.568 714.409L392.51 700.396L386.505 682.38Z" fill="#C1C0BD"/>
<ellipse cx="374.533" cy="587.929" rx="4.00362" ry="6.00543" transform="rotate(-10.6343 374.533 587.929)" fill="#FE9598"/>
<ellipse cx="390.432" cy="583.862" rx="4.00362" ry="6.00543" transform="rotate(-9.36765 390.432 583.862)" fill="#FE9598"/>
<ellipse cx="410.94" cy="585.475" rx="4.00362" ry="6.00543" transform="rotate(2.71595 410.94 585.475)" fill="#FE9598"/>
<circle cx="395.856" cy="613.661" r="14.0127" transform="rotate(-10.6343 395.856 613.661)" fill="#FE9598"/>
<path d="M191.349 611.221L157.298 719.413L226.402 690.478L246.432 611.221C248.101 606.189 250.838 594.112 248.435 586.06C246.031 578.009 238.753 580.189 235.415 582.286C226.602 573.228 217.722 578.512 214.383 582.286C215.385 575.996 195.355 579.77 191.349 586.06C188.144 591.092 190.014 604.931 191.349 611.221Z" fill="#C1C0BD" stroke="black"/>
<path d="M228.362 688.385L169.308 692.389L158.298 720.414L222.356 706.401L228.362 688.385Z" fill="#C1C0BD"/>
<ellipse cx="201.337" cy="593.299" rx="4.00362" ry="6.00543" fill="#FE9598"/>
<ellipse cx="222.634" cy="590.058" rx="4.00362" ry="6.00543" transform="rotate(13.3502 222.634 590.058)" fill="#FE9598"/>
<ellipse cx="240.65" cy="592.06" rx="4.00362" ry="6.00543" transform="rotate(13.3502 240.65 592.06)" fill="#FE9598"/>
<ellipse cx="217.352" cy="617.321" rx="14.0127" ry="14.0127" fill="#FE9598"/>
</svg>
