<svg width="600" height="740" viewBox="0 0 600 740" fill="none" xmlns="http://www.w3.org/2000/svg">
<rect x="233.5" y="254.5" width="23" height="60" fill="#B1B1B1" stroke="black"/>
<rect x="359.5" y="254.5" width="23" height="60" fill="#B1B1B1" stroke="black"/>
<path d="M408.276 314.5C408.304 314.531 408.335 314.566 408.369 314.604C408.527 314.782 408.76 315.042 409.057 315.377C409.651 316.046 410.504 317.011 411.538 318.189C413.607 320.547 416.402 323.764 419.306 327.198C422.21 330.633 425.22 334.283 427.722 337.51C430.233 340.749 432.203 343.524 433.053 345.224L433.068 345.256L433.089 345.284C435.3 348.478 436.53 351.675 437.206 354.073C437.544 355.272 437.744 356.269 437.858 356.964C437.892 357.17 437.918 357.35 437.938 357.5H188.008C188.008 357.491 188.009 357.481 188.009 357.472C188.017 357.123 188.034 356.607 188.069 355.948C188.139 354.63 188.279 352.735 188.559 350.436C189.118 345.834 190.237 339.62 192.473 333.163C194.702 326.723 197.673 322.021 200.082 318.933C201.286 317.389 202.35 316.248 203.109 315.496C203.489 315.12 203.794 314.841 204.001 314.657C204.073 314.593 204.135 314.541 204.183 314.5H408.276Z" fill="#D9D9D9" stroke="black"/>
<line x1="140.986" y1="287.836" x2="141.986" y2="293.836" stroke="black" stroke-width="2"/>
<line x1="385.99" y1="291.141" x2="384.99" y2="298.141" stroke="black" stroke-width="2"/>
<circle cx="385" cy="299" r="2" fill="black"/>
<circle cx="142" cy="294" r="2" fill="black"/>
<line x1="304" y1="172" x2="304" y2="163" stroke="black" stroke-width="2"/>
<circle cx="304" cy="164" r="3" fill="black"/>
<line x1="12.5547" y1="309.832" x2="9.5547" y2="311.832" stroke="black" stroke-width="2"/>
<circle cx="9.5" cy="311.5" r="1.5" fill="black"/>
<line x1="567.555" y1="317.168" x2="573.555" y2="321.168" stroke="black" stroke-width="2"/>
<circle cx="573.5" cy="321.5" r="2.5" fill="black"/>
<mask id="mask0_37_2" style="mask-type:alpha" maskUnits="userSpaceOnUse" x="10" y="171" width="562" height="149">
<path d="M230 176C164.4 182.8 56.6667 268.833 11 311C73.8 291.8 123.5 287.667 140.5 288C273.7 276.4 359.333 285.5 385.5 291.5C434.3 285.9 527.833 306.5 568.5 317.5C538.5 281.667 468.4 206.3 428 191.5C377.5 173 312 167.5 230 176Z" fill="white" stroke="black" stroke-width="2"/>
</mask>
<g mask="url(#mask0_37_2)">
<path d="M230 176C164.4 182.8 56.6667 268.833 11 311C73.8 291.8 123.5 287.667 140.5 288C273.7 276.4 359.333 285.5 385.5 291.5C434.3 285.9 527.833 306.5 568.5 317.5C538.5 281.667 468.4 206.3 428 191.5C377.5 173 312 167.5 230 176Z" fill="#FF2F2F"/>
<path d="M6 168L236 155C236 155 205 194 182 232.5C159 271 118.5 313.506 118.5 313.506L6 318V168Z" fill="#3B16F4"/>
<path d="M446 185.5L579 168V316L367.5 309C367.5 309 417 265.5 425.5 233C434 200.5 446 185.5 446 185.5Z" fill="#FD53F2"/>
<path d="M230 176C164.4 182.8 56.6667 268.833 11 311C73.8 291.8 123.5 287.667 140.5 288C273.7 276.4 359.333 285.5 385.5 291.5C434.3 285.9 527.833 306.5 568.5 317.5C538.5 281.667 468.4 206.3 428 191.5C377.5 173 312 167.5 230 176Z" stroke="black" stroke-width="2"/>
</g>
</svg>
