<svg width="600" height="740" viewBox="0 0 600 740" fill="none" xmlns="http://www.w3.org/2000/svg">
<mask id="mask0_40_267" style="mask-type:alpha" maskUnits="userSpaceOnUse" x="120" y="499" width="365" height="235">
<path d="M128.185 539.928L159.18 499.935C253.496 509.934 442.53 529.93 444.13 529.93C445.73 529.93 464.793 555.259 474.125 567.924C468.886 566.09 462 562.815 459.292 561.497C463.778 565.389 472.038 587.747 471.125 585.92C470.125 583.921 437.131 565.924 442.13 568.923C446.129 571.323 453.795 581.255 457.128 585.92L442.13 583.921C466.126 604.917 474.125 638.911 474.125 638.911C469.325 626.113 461.46 623.58 458.127 623.914C467.895 623.914 477.663 655.536 481.915 668.28C483.297 670.088 484.123 671.683 484.123 672.905C484.123 674.644 483.32 672.494 481.915 668.28C476.968 661.808 464.9 652.599 458.127 647.91C460.846 654.183 465.27 663.999 468.189 669.454C469.95 670.594 471.125 671.775 471.125 672.905C471.125 674.395 469.922 672.693 468.189 669.454C464.112 666.816 456.894 664.398 453.842 663.348C458.958 668.056 475.896 708.329 484.123 728.895C480.604 725.817 475.026 720.881 472.327 718.339C474.157 721.498 475.573 728.313 476.124 731.895L462.127 720.897C352.479 730.229 133.184 742.093 133.184 714.898C133.184 680.904 168.178 646.91 161.179 645.91C154.181 644.91 133.184 663.907 133.184 663.907C128.185 649.909 169.178 620.914 165.179 614.915C161.179 608.916 121.186 627.913 121.186 620.914C121.186 615.315 154.514 595.252 171.178 585.92H159.18C164.941 582.628 175.31 576.761 178.35 575.236C171.722 577.191 128.185 585.587 128.185 580.921C128.185 576.735 160.442 552.913 170.34 546.455C163.083 549.501 143.763 555.67 133.184 558.925C144.516 546.261 166.778 520.732 165.179 519.932C163.579 519.132 139.85 532.93 128.185 539.928Z" fill="#FEFEFE"/>
<path d="M159.18 499.935L128.185 539.928C139.85 532.93 163.579 519.132 165.179 519.932C166.778 520.732 144.516 546.261 133.184 558.925C146.182 554.926 172.377 546.527 173.177 544.928C174.177 542.928 128.185 575.922 128.185 580.921C128.185 585.92 178.176 575.922 179.176 574.922C179.976 574.122 166.178 581.921 159.18 585.92H171.178C154.514 595.252 121.186 615.315 121.186 620.914C121.186 627.913 161.179 608.916 165.179 614.915C169.178 620.914 128.185 649.909 133.184 663.907C133.184 663.907 154.181 644.91 161.179 645.91C168.178 646.91 133.184 680.904 133.184 714.898C133.184 742.093 352.479 730.229 462.127 720.897L476.124 731.895C475.458 727.562 473.525 718.497 471.125 716.898C468.725 715.298 478.79 724.23 484.123 728.895C475.458 707.233 457.128 663.707 453.128 662.907C448.129 661.907 471.125 667.906 471.125 672.905C471.125 676.905 462.46 657.908 458.127 647.91C466.792 653.909 484.123 667.306 484.123 672.905C484.123 679.904 471.125 623.914 458.127 623.914C461.46 623.58 469.325 626.113 474.125 638.911C474.125 638.911 466.126 604.917 442.13 583.921L457.128 585.92C453.795 581.255 446.129 571.323 442.13 568.923C437.131 565.924 470.125 583.921 471.125 585.92C472.125 587.92 462.127 560.925 458.127 560.925C458.127 560.925 467.459 565.591 474.125 567.924C464.793 555.259 445.73 529.93 444.13 529.93C442.53 529.93 253.496 509.934 159.18 499.935Z" stroke="black"/>
</mask>
<g mask="url(#mask0_40_267)">
<path d="M128.185 539.928L159.18 499.935C253.496 509.934 442.53 529.93 444.13 529.93C445.73 529.93 464.793 555.259 474.125 567.924C468.886 566.09 462 562.815 459.292 561.497C463.778 565.389 472.038 587.747 471.125 585.92C470.125 583.921 437.131 565.924 442.13 568.923C446.129 571.323 453.795 581.255 457.128 585.92L442.13 583.921C466.126 604.917 474.125 638.911 474.125 638.911C469.325 626.113 461.46 623.58 458.127 623.914C467.895 623.914 477.663 655.536 481.915 668.28C483.297 670.088 484.123 671.683 484.123 672.905C484.123 674.644 483.32 672.494 481.915 668.28C476.968 661.808 464.9 652.599 458.127 647.91C460.846 654.183 465.27 663.999 468.189 669.454C469.95 670.594 471.125 671.775 471.125 672.905C471.125 674.395 469.922 672.693 468.189 669.454C464.112 666.816 456.894 664.398 453.842 663.348C458.958 668.056 475.896 708.329 484.123 728.895C480.604 725.817 475.026 720.881 472.327 718.339C474.157 721.498 475.573 728.313 476.124 731.895L462.127 720.897C352.479 730.229 133.184 742.093 133.184 714.898C133.184 680.904 168.178 646.91 161.179 645.91C154.181 644.91 133.184 663.907 133.184 663.907C128.185 649.909 169.178 620.914 165.179 614.915C161.179 608.916 121.186 627.913 121.186 620.914C121.186 615.315 154.514 595.252 171.178 585.92H159.18C164.941 582.628 175.31 576.761 178.35 575.236C171.722 577.191 128.185 585.587 128.185 580.921C128.185 576.735 160.442 552.913 170.34 546.455C163.083 549.501 143.763 555.67 133.184 558.925C144.516 546.261 166.778 520.732 165.179 519.932C163.579 519.132 139.85 532.93 128.185 539.928Z" fill="#FEFEFE"/>
<path d="M159.18 499.935L128.185 539.928C139.85 532.93 163.579 519.132 165.179 519.932C166.778 520.732 144.516 546.261 133.184 558.925C146.182 554.926 172.377 546.527 173.177 544.928C174.177 542.928 128.185 575.922 128.185 580.921C128.185 585.92 178.176 575.922 179.176 574.922C179.976 574.122 166.178 581.921 159.18 585.92H171.178C154.514 595.252 121.186 615.315 121.186 620.914C121.186 627.913 161.179 608.916 165.179 614.915C169.178 620.914 128.185 649.909 133.184 663.907C133.184 663.907 154.181 644.91 161.179 645.91C168.178 646.91 133.184 680.904 133.184 714.898C133.184 742.093 352.479 730.229 462.127 720.897L476.124 731.895C475.458 727.562 473.525 718.497 471.125 716.898C468.725 715.298 478.79 724.23 484.123 728.895C475.458 707.233 457.128 663.707 453.128 662.907C448.129 661.907 471.125 667.906 471.125 672.905C471.125 676.905 462.46 657.908 458.127 647.91C466.792 653.909 484.123 667.306 484.123 672.905C484.123 679.904 471.125 623.914 458.127 623.914C461.46 623.58 469.325 626.113 474.125 638.911C474.125 638.911 466.126 604.917 442.13 583.921L457.128 585.92C453.795 581.255 446.129 571.323 442.13 568.923C437.131 565.924 470.125 583.921 471.125 585.92C472.125 587.92 462.127 560.925 458.127 560.925C458.127 560.925 467.459 565.591 474.125 567.924C464.793 555.259 445.73 529.93 444.13 529.93C442.53 529.93 253.496 509.934 159.18 499.935Z" stroke="black"/>
<path d="M160.179 615.915C162.579 611.116 203.172 604.584 223.168 601.918C216.769 633.912 229.834 661.907 237.166 671.905C235.566 663.107 239.166 648.909 241.165 642.91C236.366 673.305 258.496 700.9 270.16 710.899C266.28 698.483 277.143 675.652 283.577 664.867C283.763 664.546 283.957 664.226 284.158 663.907C283.969 664.215 283.775 664.535 283.577 664.867C268.007 691.724 303.261 725.872 312.153 723.896C337.748 716.698 371.142 648.909 371.142 648.909C374.342 653.709 368.476 669.572 365.144 676.904C387.14 656.908 393.139 627.913 393.139 627.913C397.138 631.912 393.139 642.91 393.139 642.91C398.138 636.911 408.136 604.917 408.136 604.917C410.136 604.917 414.135 615.915 414.135 615.915C418.134 615.915 423.133 580.921 420.134 574.922C422.533 570.923 433.132 576.589 438.131 579.921L448.129 587.92L501.12 595.919V763.889L101.19 744.893L113.188 634.912C127.852 630.579 157.78 620.714 160.179 615.915Z" fill="#C1C0BD"/>
<path d="M223.168 601.918C203.172 604.584 162.579 611.116 160.179 615.915C157.78 620.714 127.852 630.579 113.188 634.912L101.19 744.893L501.12 763.889V595.919L448.129 587.92L438.131 579.921C433.132 576.589 422.533 570.923 420.134 574.922C423.133 580.921 418.134 615.915 414.135 615.915C414.135 615.915 410.136 604.917 408.136 604.917C408.136 604.917 398.138 636.911 393.139 642.91C393.139 642.91 397.138 631.912 393.139 627.913C393.139 627.913 387.14 656.908 365.144 676.904C368.476 669.572 374.342 653.709 371.142 648.909C371.142 648.909 337.748 716.698 312.153 723.896C303.154 725.896 267.161 690.902 284.158 663.907C277.825 674.238 266.161 698.101 270.16 710.899C258.496 700.9 236.366 673.305 241.165 642.91C239.166 648.909 235.566 663.107 237.166 671.905C229.834 661.907 216.769 633.912 223.168 601.918Z" stroke="black"/>
<path d="M159.18 499.935L128.185 539.928C139.85 532.93 163.579 519.132 165.179 519.932C166.778 520.732 144.516 546.261 133.184 558.925C146.182 554.926 172.377 546.527 173.177 544.928C174.177 542.928 128.185 575.922 128.185 580.921C128.185 585.92 178.176 575.922 179.176 574.922C179.976 574.122 166.178 581.921 159.18 585.92H171.178C154.514 595.252 121.186 615.315 121.186 620.914C121.186 627.913 161.179 608.916 165.179 614.915C169.178 620.914 128.185 649.909 133.184 663.907C133.184 663.907 154.181 644.91 161.179 645.91C168.178 646.91 133.184 680.904 133.184 714.898C133.184 742.093 352.479 730.229 462.127 720.897L476.124 731.895C475.458 727.562 473.525 718.497 471.125 716.898C468.725 715.298 478.79 724.23 484.123 728.895C475.458 707.233 457.128 663.707 453.128 662.907C448.129 661.907 471.125 667.906 471.125 672.905C471.125 676.905 462.46 657.908 458.127 647.91C466.792 653.909 484.123 667.306 484.123 672.905C484.123 679.904 471.125 623.914 458.127 623.914C461.46 623.58 469.325 626.113 474.125 638.911C474.125 638.911 466.126 604.917 442.13 583.921L457.128 585.92C453.795 581.255 446.129 571.323 442.13 568.923C437.131 565.924 470.125 583.921 471.125 585.92C472.125 587.92 462.127 560.925 458.127 560.925C458.127 560.925 467.459 565.591 474.125 567.924C464.793 555.259 445.73 529.93 444.13 529.93C442.53 529.93 253.496 509.934 159.18 499.935Z" stroke="black"/>
</g>
<mask id="mask1_40_267" style="mask-type:alpha" maskUnits="userSpaceOnUse" x="89" y="240" width="406" height="357">
<path d="M233.167 271.975C232.5 264.977 223.368 251.579 192.174 253.978C192.174 253.978 223.168 239.981 252.163 253.978C268.827 253.312 303.354 253.379 308.154 258.978C313.329 265.016 302.877 251.705 296.7 248.579C295.119 248.186 294.156 247.98 294.156 247.98C294.842 247.842 295.717 248.082 296.7 248.579C303.645 250.308 322.522 255.647 324.151 262.977C326.15 271.975 322.151 246.98 319.152 241.981C316.152 236.981 345.147 251.979 345.147 266.976C346.147 269.976 380.141 264.977 394.139 280.974C403.137 274.975 424.133 264.777 436.131 271.975L424.133 283.973C444.13 304.303 481.323 377.157 470.125 505.934C472.125 506.934 476.124 524.931 493.121 535.929C496.321 538.329 483.123 534.929 476.124 532.93C479.124 535.929 484.923 542.528 484.123 544.928C483.323 547.327 464.46 542.595 455.128 539.928C446.463 538.262 428.932 535.729 428.133 538.929C427.133 542.928 408.136 557.925 385.14 563.924C366.743 568.723 354.812 565.924 351.146 563.924C345.48 571.923 327.15 589.32 299.155 594.919C271.16 600.518 252.163 570.59 246.164 554.926C233.5 550.593 205.772 540.128 196.173 532.93C186.575 525.731 176.177 511.933 172.177 505.934C158.18 505.601 128.785 504.335 123.186 501.935C120.786 500.335 128.185 496.603 132.184 494.936C123.853 490.604 103.789 484.538 90.1917 494.936C86.1924 497.936 172.177 252.979 233.167 271.975Z" fill="#D9D9D9"/>
<path d="M233.167 271.975C232.5 264.977 223.368 251.579 192.174 253.978C192.174 253.978 223.168 239.981 252.163 253.978C268.827 253.312 303.354 253.379 308.154 258.978C314.153 265.976 299.155 246.98 294.156 247.98C294.156 247.98 322.151 253.979 324.151 262.977C326.15 271.975 322.151 246.98 319.152 241.981C316.152 236.981 345.147 251.979 345.147 266.976C346.147 269.976 380.141 264.977 394.139 280.974C403.137 274.975 424.133 264.777 436.131 271.975L424.133 283.973C444.13 304.303 481.323 377.157 470.125 505.934C472.125 506.934 476.124 524.931 493.121 535.929C496.321 538.329 483.123 534.929 476.124 532.93C479.124 535.929 484.923 542.528 484.123 544.928C483.323 547.327 464.46 542.595 455.128 539.928C446.463 538.262 428.932 535.729 428.133 538.929C427.133 542.928 408.136 557.925 385.14 563.924C366.743 568.723 354.812 565.924 351.146 563.924C345.48 571.923 327.15 589.32 299.155 594.919C271.16 600.518 252.163 570.59 246.164 554.926C233.5 550.593 205.772 540.128 196.173 532.93C186.575 525.731 176.177 511.933 172.177 505.934C158.18 505.601 128.785 504.335 123.186 501.935C120.786 500.335 128.185 496.603 132.184 494.936C123.853 490.604 103.789 484.538 90.1917 494.936C86.1924 497.936 172.177 252.979 233.167 271.975Z" stroke="black"/>
</mask>
<g mask="url(#mask1_40_267)">
<path d="M233.167 271.975C232.5 264.977 223.368 251.579 192.174 253.978C192.174 253.978 223.168 239.981 252.163 253.978C268.827 253.312 303.354 253.379 308.154 258.978C313.329 265.016 302.877 251.705 296.7 248.579C295.119 248.186 294.156 247.98 294.156 247.98C294.842 247.842 295.717 248.082 296.7 248.579C303.645 250.308 322.522 255.647 324.151 262.977C326.15 271.975 322.151 246.98 319.152 241.981C316.152 236.981 345.147 251.979 345.147 266.976C346.147 269.976 380.141 264.977 394.139 280.974C403.137 274.975 424.133 264.777 436.131 271.975L424.133 283.973C444.13 304.303 481.323 377.157 470.125 505.934C472.125 506.934 476.124 524.931 493.121 535.929C496.321 538.329 483.123 534.929 476.124 532.93C479.124 535.929 484.923 542.528 484.123 544.928C483.323 547.327 464.46 542.595 455.128 539.928C446.463 538.262 428.932 535.729 428.133 538.929C427.133 542.928 408.136 557.925 385.14 563.924C366.743 568.723 354.812 565.924 351.146 563.924C345.48 571.923 327.15 589.32 299.155 594.919C271.16 600.518 252.163 570.59 246.164 554.926C233.5 550.593 205.772 540.128 196.173 532.93C186.575 525.731 176.177 511.933 172.177 505.934C158.18 505.601 128.785 504.335 123.186 501.935C120.786 500.335 128.185 496.603 132.184 494.936C123.853 490.604 103.789 484.538 90.1917 494.936C86.1924 497.936 172.177 252.979 233.167 271.975Z" fill="#FEFEFE"/>
<path d="M228.168 491.937C226.568 468.741 256.829 440.279 272.16 428.948C278.559 420.949 293.489 388.288 300.155 372.958C292.156 359.627 275.359 332.165 272.16 328.965C268.96 325.766 243.498 332.298 231.167 335.964C221.169 348.962 209.371 373.358 206.171 370.958C202.972 368.558 115.854 451.277 72.1948 491.937L107.189 510.934L168.178 536.929C195.173 545.261 248.564 560.525 246.164 554.926C243.165 547.927 233.167 539.928 230.167 533.93C227.768 529.13 235.166 522.598 239.166 519.932C236.166 520.265 229.767 515.133 228.168 491.937Z" fill="#D78138"/>
<path d="M205.172 407.951C213.17 380.756 199.839 344.629 192.174 329.965C177.776 320.367 150.848 397.953 139.183 437.946C157.847 439.279 197.173 435.147 205.172 407.951Z" fill="#665858"/>
<path d="M228.168 342.963C231.254 348.107 214.503 367.625 206.172 373.957C198.973 372.358 187.175 306.636 182.176 273.975V237.981L268.161 241.981C280.492 246.313 301.955 255.578 289.157 257.978C273.16 260.977 274.16 295.971 278.159 298.971C302.155 313.368 305.154 341.963 305.154 356.96C303.157 388.922 283.864 418.889 270.202 429.914C270.174 429.937 270.16 429.948 270.16 429.948C270.174 429.937 270.188 429.925 270.202 429.914C270.821 429.395 278.265 422.485 285.158 384.956C292.357 345.762 270.827 333.298 259.162 331.965C248.831 334.631 225.168 337.964 228.168 342.963Z" fill="#C1C0BD"/>
<path d="M289.157 307.969C297.156 311.968 305.154 338.964 306.154 352.961C306.92 363.691 294.061 364.103 286.157 362.959C283.158 344.963 279.159 343.963 269.16 334.964C259.162 325.966 281.158 303.97 289.157 307.969Z" fill="#665858"/>
<path d="M387.14 311.968C388.74 326.366 371.809 337.964 363.144 341.963C371.143 341.963 390.339 344.963 403.137 356.96C419.134 371.958 425.133 427.948 426.133 420.949C427.133 413.95 427.133 319.967 405.137 308.969C394.464 303.632 417.543 303.197 434.132 289.972C444.894 281.392 444.555 262.748 454.128 256.978C416.135 258.644 341.948 262.177 349.146 262.977C358.145 263.977 385.14 293.971 387.14 311.968Z" fill="#C1C0BD"/>
<path d="M339.148 429.948C330.35 380.356 354.812 357.294 368.143 351.961C368.81 348.295 368.943 340.963 364.144 340.963C358.145 340.963 322.151 377.957 325.151 399.953C328.15 421.949 341.148 433.947 339.148 429.948Z" fill="#665858"/>
<path d="M338.148 382.956C338.148 380.427 356.145 344.963 363.144 341.963C409.536 341.163 423.134 379.956 425.133 418.95L468.126 467.941L522.116 523.931L517.117 558.925L370.143 580.921L352.146 564.924C353.146 565.591 356.545 565.124 362.144 557.925C367.743 550.727 363.811 540.928 361.144 536.929C367.143 531.93 379.141 520.532 379.141 514.933C381.141 443.945 344.147 436.946 338.148 429.948C332.149 422.949 338.148 386.955 338.148 382.956Z" fill="#D78138"/>
<path d="M377.142 382.956C356.345 379.756 355.145 418.95 357.145 438.946C356.145 443.945 372.142 464.942 374.142 462.942C376.142 460.942 380.141 463.942 384.14 464.942C388.14 465.941 402.137 493.936 411.136 482.938C420.134 471.94 429.133 474.94 433.132 472.94C437.131 470.94 463.127 510.934 469.126 502.935C475.124 494.936 464.126 362.959 458.127 347.962C453.328 335.964 425.466 322.966 412.135 317.967C418.134 326.966 428.133 411.951 426.133 418.95C424.533 424.549 418.468 425.282 415.135 423.949C411.136 411.618 397.938 386.155 377.142 382.956Z" fill="#D78138"/>
<path d="M233.167 271.975C232.5 264.977 223.368 251.579 192.174 253.978C192.174 253.978 223.168 239.981 252.163 253.978C268.827 253.312 303.354 253.379 308.154 258.978C314.153 265.976 299.155 246.98 294.156 247.98C294.156 247.98 322.151 253.979 324.151 262.977C326.15 271.975 322.151 246.98 319.152 241.981C316.152 236.981 345.147 251.979 345.147 266.976C346.147 269.976 380.141 264.977 394.139 280.974C403.137 274.975 424.133 264.777 436.131 271.975L424.133 283.973C444.13 304.303 481.323 377.157 470.125 505.934C472.125 506.934 476.124 524.931 493.121 535.929C496.321 538.329 483.123 534.929 476.124 532.93C479.124 535.929 484.923 542.528 484.123 544.928C483.323 547.327 464.46 542.595 455.128 539.928C446.463 538.262 428.932 535.729 428.133 538.929C427.133 542.928 408.136 557.925 385.14 563.924C366.743 568.723 354.812 565.924 351.146 563.924C345.48 571.923 327.15 589.32 299.155 594.919C271.16 600.518 252.163 570.59 246.164 554.926C233.5 550.593 205.772 540.128 196.173 532.93C186.575 525.731 176.177 511.933 172.177 505.934C158.18 505.601 128.785 504.335 123.186 501.935C120.786 500.335 128.185 496.603 132.184 494.936C123.853 490.604 103.789 484.538 90.1917 494.936C86.1924 497.936 172.177 252.979 233.167 271.975Z" stroke="black"/>
</g>
<mask id="mask2_40_267" style="mask-type:alpha" maskUnits="userSpaceOnUse" x="400" y="279" width="152" height="247">
<path d="M438.131 353.961C434.931 341.963 412.135 316.967 401.137 305.969C410.736 304.37 424.466 287.972 430.132 279.974C458.127 288.772 495.121 310.968 510.118 320.967H497.12C514.117 341.297 548.511 382.756 550.111 385.955C552.111 389.955 550.111 415.95 550.111 430.947C550.111 442.945 537.447 464.608 531.114 473.94C530.448 459.942 528.715 435.747 527.115 450.944C525.116 469.941 496.121 475.94 492.121 492.937C488.922 506.534 494.787 519.932 498.12 524.931C459.127 515.933 450.129 480.939 446.129 470.94C442.13 460.942 442.13 368.958 438.131 353.961Z" fill="#D9D9D9" stroke="black"/>
</mask>
<g mask="url(#mask2_40_267)">
<path d="M438.131 353.961C434.931 341.963 412.135 316.967 401.137 305.969C410.736 304.37 424.466 287.972 430.132 279.974C458.127 288.772 495.121 310.968 510.118 320.967H497.12C514.117 341.297 548.511 382.756 550.111 385.955C552.111 389.955 550.111 415.95 550.111 430.947C550.111 442.945 537.447 464.608 531.114 473.94C530.448 459.942 528.715 435.747 527.115 450.944C525.116 469.941 496.121 475.94 492.121 492.937C488.922 506.534 494.787 519.932 498.12 524.931C459.127 515.933 450.129 480.939 446.129 470.94C442.13 460.942 442.13 368.958 438.131 353.961Z" fill="#C1C0BD"/>
<path d="M530.115 420.949C537.313 416.15 527.115 386.955 521.116 372.958L554.083 399.137L565.108 462.942L483.123 551.926C470.125 531.93 444.93 486.738 448.129 465.941C451.328 445.145 472.791 439.946 483.123 439.946C481.456 443.612 480.523 450.144 490.122 446.945C502.119 442.945 507.119 431.947 510.118 426.948C513.118 421.949 507.119 382.956 513.118 387.955C529.115 402.952 521.116 426.948 530.115 420.949Z" fill="#665858"/>
<path d="M414.135 300.97C414.135 307.369 406.803 307.636 403.137 306.969C410.136 347.629 428.133 430.148 444.13 434.947C460.127 439.746 470.125 424.949 473.125 416.95C481.79 413.95 499.12 402.352 499.12 379.956C499.12 357.56 471.792 347.962 458.127 345.962C469.125 325.966 414.135 292.972 414.135 300.97Z" fill="#665858"/>
<path d="M438.131 353.961C434.931 341.963 412.135 316.967 401.137 305.969C410.736 304.37 424.466 287.972 430.132 279.974C458.127 288.772 495.121 310.968 510.118 320.967H497.12C514.117 341.297 548.511 382.756 550.111 385.955C552.111 389.955 550.111 415.95 550.111 430.947C550.111 442.945 537.447 464.608 531.114 473.94C530.448 459.942 528.715 435.747 527.115 450.944C525.116 469.941 496.121 475.94 492.121 492.937C488.922 506.534 494.787 519.932 498.12 524.931C459.127 515.933 450.129 480.939 446.129 470.94C442.13 460.942 442.13 368.958 438.131 353.961Z" stroke="black"/>
</g>
<mask id="mask3_40_267" style="mask-type:alpha" maskUnits="userSpaceOnUse" x="47" y="253" width="206" height="241">
<path d="M189.174 341.963C194.773 305.169 233.5 294.638 252.163 293.971V277.974L223.168 263.977C210.171 264.977 182.576 266.776 176.177 265.976C169.778 265.176 160.179 257.644 156.18 253.978C158.18 258.978 160.779 268.576 155.18 266.976C149.581 265.376 137.517 272.975 132.184 276.974C146.182 276.641 149.181 277.974 149.181 277.974C124.186 279.974 56.1976 352.961 52.1983 365.959C48.199 378.957 45.1996 420.949 52.1983 404.952C59.1971 388.955 59.1971 391.954 60.1969 404.952C60.9968 415.35 72.5281 427.281 78.1938 431.947V408.951C78.5271 403.619 79.9935 396.753 83.1929 411.951C87.1922 430.947 103.189 431.947 103.189 448.944C103.189 462.542 91.8581 483.938 86.1924 492.937C96.8572 488.604 124.986 475.14 152.181 455.943C186.175 431.947 182.176 387.955 189.174 341.963Z" fill="#C1C0BD" stroke="black"/>
</mask>
<g mask="url(#mask3_40_267)">
<path d="M189.174 341.963C194.773 305.169 233.5 294.638 252.163 293.971V277.974L223.168 263.977C210.171 264.977 182.576 266.776 176.177 265.976C169.778 265.176 160.179 257.644 156.18 253.978C158.18 258.978 160.779 268.576 155.18 266.976C149.581 265.376 137.517 272.975 132.184 276.974C146.182 276.641 149.181 277.974 149.181 277.974C124.186 279.974 56.1976 352.961 52.1983 365.959C48.199 378.957 45.1996 420.949 52.1983 404.952C59.1971 388.955 59.1971 391.954 60.1969 404.952C60.9968 415.35 72.5281 427.281 78.1938 431.947V408.951C78.5271 403.619 79.9935 396.753 83.1929 411.951C87.1922 430.947 103.189 431.947 103.189 448.944C103.189 462.542 91.8581 483.938 86.1924 492.937C96.8572 488.604 124.986 475.14 152.181 455.943C186.175 431.947 182.176 387.955 189.174 341.963Z" fill="#C1C0BD" stroke="black"/>
<path d="M119.744 419.949C107.747 406.352 114.745 393.621 119.744 388.955C123.597 383.956 119.744 378.957 109.746 378.957C100.626 378.957 87.4168 391.954 80.7513 401.953C78.4184 405.285 76.9519 414.95 89.7497 426.948C102.547 438.946 103.747 446.945 103.747 450.944H116.745C122.744 446.278 131.742 433.547 119.744 419.949Z" fill="#665858"/>
<path d="M107.327 324.113L97.3285 319.113C97.3285 319.113 95.3289 319.863 94.3291 319.113C90.3298 316.114 52.3364 360.106 50.3368 368.105C45.3376 372.104 46.1994 428.948 48.1991 424.949C49.7988 421.749 54.8646 404.285 57.1975 401.953C52.3983 419.549 71.6664 428.615 77.332 433.947C77.9986 423.615 72.5329 391.101 77.332 395.1C82.1312 399.099 89.3299 382.102 92.3294 373.104C88.9967 365.772 82.9311 349.708 85.3306 344.109C87.7302 338.51 100.328 333.778 106.327 332.111L107.327 324.113Z" fill="#D78138"/>
<path d="M118.187 343.963C110.988 341.563 109.188 332.965 111.188 322.966C112.87 310.351 139.311 292.785 147.669 287.522C148.455 286.876 149.292 286.354 150.181 285.973C150.181 285.973 149.248 286.528 147.669 287.522C138.556 295.002 136.184 319 136.184 330.965C133.184 336.297 125.385 346.362 118.187 343.963Z" fill="#665858"/>
<path d="M252.163 293.971C233.5 294.638 194.773 305.169 189.174 341.963C182.176 387.955 186.175 431.947 152.181 455.943C124.986 475.14 96.8572 488.604 86.1924 492.937C91.8581 483.938 103.189 462.542 103.189 448.944C103.189 431.947 87.1922 430.947 83.1929 411.951C79.9935 396.753 78.5271 403.619 78.1938 408.951V431.947C72.5281 427.281 60.9968 415.35 60.1969 404.952C59.1971 391.954 59.1971 388.955 52.1983 404.952C45.1996 420.949 48.199 378.957 52.1983 365.959C56.1976 352.961 124.186 279.974 149.181 277.974C149.181 277.974 146.182 276.641 132.184 276.974C137.517 272.975 149.581 265.376 155.18 266.976C160.779 268.576 158.18 258.978 156.18 253.978C160.179 257.644 169.778 265.176 176.177 265.976C182.576 266.776 210.171 264.977 223.168 263.977L252.163 277.974" stroke="black"/>
</g>
<rect x="232.71" y="264.74" width="33.9941" height="42.2306" transform="rotate(2.0938 232.71 264.74)" fill="#C1C0BD"/>
<rect x="422.602" y="282.973" width="3.9993" height="34.6245" transform="rotate(47.343 422.602 282.973)" fill="#C1C0BD"/>
<rect x="405.734" y="301.275" width="3.9993" height="9.45634" transform="rotate(65.8405 405.734 301.275)" fill="#C1C0BD"/>
<rect x="429.627" y="280.186" width="3.9993" height="34.3966" transform="rotate(47.343 429.627 280.186)" fill="#C1C0BD"/>
<path d="M302.946 524.977C257.374 548.782 229.991 509.107 221.996 486.294C219.998 484.971 216 483.517 216 488.278M302.946 524.977V510.099M302.946 524.977C317.603 537.21 354.714 551.757 385.894 512.082C387.893 511.091 391.691 510.495 390.891 516.05" stroke="black" stroke-width="2" stroke-linecap="round"/>
<path d="M338.046 467.73C330.011 458.941 299.212 459.407 284.816 460.739C279.795 461.738 276.38 469.727 278.79 473.722C281.803 478.715 278.79 486.704 293.855 488.702C294.86 486.704 297.873 490.699 293.855 492.696L282.808 493.695C284.816 502.683 300.886 508.675 305.907 509.674C323.985 511.671 332.69 504.015 336.037 499.687C333.024 500.02 326.195 499.887 322.981 496.691C319.767 493.495 322.311 490.699 323.985 489.7C324.655 492.696 328.003 497.49 336.037 492.696C346.081 486.704 341.059 470.726 338.046 467.73Z" fill="black"/>
<mask id="mask4_40_267" style="mask-type:alpha" maskUnits="userSpaceOnUse" x="216" y="484" width="176" height="102">
<path d="M303.154 524.931C257.562 548.927 230.167 508.934 222.169 485.938C220.169 484.605 216.17 483.138 216.17 487.938C233.167 520.598 268.96 585.92 276.159 585.92C285.158 585.92 328.15 585.92 333.149 574.922C337.149 566.124 344.147 551.926 347.147 545.927L391.139 515.933C391.939 510.334 388.14 510.933 386.14 511.933C354.945 551.926 317.819 537.262 303.154 524.931Z" fill="#D9D9D9"/>
</mask>
<g mask="url(#mask4_40_267)">
<path d="M297.155 578.922C260.362 581.321 258.496 533.93 262.162 509.934L297.155 511.433L332.149 512.933C335.815 533.93 333.949 576.522 297.155 578.922Z" fill="#FE9598"/>
<path d="M297.155 511.433L332.149 512.933C335.815 533.93 333.949 576.522 297.155 578.922C260.362 581.321 258.496 533.93 262.162 509.934L297.155 511.433ZM297.155 511.433V551.926" stroke="black" stroke-width="2" stroke-linecap="round"/>
</g>
<mask id="mask5_40_267" style="mask-type:alpha" maskUnits="userSpaceOnUse" x="216" y="387" width="50" height="49">
<path d="M265.161 413.951C265.161 432.173 255.97 435.947 242.165 435.947C228.36 435.947 216.17 432.173 216.17 413.951C216.17 395.728 228.36 387.955 242.165 387.955C255.97 387.955 265.161 395.728 265.161 413.951Z" fill="white"/>
</mask>
<g mask="url(#mask5_40_267)">
<path d="M265.161 413.951C265.161 432.173 255.97 435.947 242.165 435.947C228.36 435.947 216.17 432.173 216.17 413.951C216.17 395.728 228.36 387.955 242.165 387.955C255.97 387.955 265.161 395.728 265.161 413.951Z" fill="white"/>
<circle cx="243.165" cy="412.951" r="23.9958" fill="#00D0FF"/>
<path d="M251.164 415.95C251.164 422.024 246.24 426.948 240.166 426.948C234.091 426.948 229.167 422.024 229.167 415.95C229.167 409.876 234.091 404.952 240.166 404.952C246.24 404.952 251.164 409.876 251.164 415.95Z" fill="black"/>
<circle cx="240.166" cy="407.952" r="0.999825" fill="white"/>
<rect x="212.795" y="406.655" width="56.9899" height="30.9944" transform="rotate(9.71335 212.795 406.655)" fill="#C1C0BD" stroke="black"/>
<rect x="218.194" y="375.12" width="56.9899" height="30.9944" transform="rotate(9.71335 218.194 375.12)" fill="#C1C0BD" stroke="black"/>
</g>
<mask id="mask6_40_267" style="mask-type:alpha" maskUnits="userSpaceOnUse" x="359" y="406" width="51" height="47">
<ellipse cx="384.14" cy="429.948" rx="24.9956" ry="22.996" fill="white"/>
</mask>
<g mask="url(#mask6_40_267)">
<ellipse cx="384.14" cy="429.948" rx="24.9956" ry="22.996" fill="white"/>
<ellipse cx="383.14" cy="429.948" rx="21.9962" ry="24.9956" fill="#00D0FF"/>
<circle cx="382.14" cy="431.947" r="10.9981" fill="black"/>
<circle cx="384.14" cy="423.949" r="0.999825" fill="white"/>
<rect x="356.77" y="426.652" width="56.9899" height="30.9944" transform="rotate(9.71335 356.77 426.652)" fill="#C1C0BD" stroke="black"/>
<rect x="362.168" y="395.116" width="56.9899" height="30.9944" transform="rotate(9.71335 362.168 395.116)" fill="#C1C0BD" stroke="black"/>
</g>
<path d="M423.113 604.823L457.127 712.898L388.098 683.994L368.09 604.823C366.422 599.796 363.688 587.732 366.089 579.689C368.49 571.646 375.76 573.825 379.094 575.919C387.898 566.871 396.768 572.149 400.103 575.919C399.103 569.636 419.111 573.406 423.113 579.689C426.314 584.716 424.447 598.539 423.113 604.823Z" fill="#C1C0BD" stroke="black"/>
<path d="M386.14 681.904L445.13 685.903L456.128 713.898L392.139 699.9L386.14 681.904Z" fill="#C1C0BD"/>
<ellipse cx="374.18" cy="587.555" rx="3.9993" ry="5.99895" transform="rotate(-10.6343 374.18 587.555)" fill="#FE9598"/>
<ellipse cx="390.063" cy="583.492" rx="3.9993" ry="5.99895" transform="rotate(-9.36765 390.063 583.492)" fill="#FE9598"/>
<ellipse cx="410.548" cy="585.103" rx="3.9993" ry="5.99895" transform="rotate(2.71595 410.548 585.103)" fill="#FE9598"/>
<circle cx="395.481" cy="613.259" r="13.9976" transform="rotate(-10.6343 395.481 613.259)" fill="#FE9598"/>
<path d="M191.195 610.822L157.18 718.897L226.21 689.993L246.218 610.822C247.885 605.795 250.62 593.731 248.219 585.688C245.818 577.645 238.548 579.823 235.213 581.918C226.41 572.87 217.539 578.148 214.204 581.918C215.205 575.635 195.196 579.405 191.195 585.688C187.993 590.715 189.861 604.538 191.195 610.822Z" fill="#C1C0BD" stroke="black"/>
<path d="M228.168 687.903L169.178 691.902L158.18 719.897L222.169 705.899L228.168 687.903Z" fill="#C1C0BD"/>
<ellipse cx="201.172" cy="592.919" rx="3.9993" ry="5.99895" fill="#FE9598"/>
<ellipse cx="222.446" cy="589.681" rx="3.9993" ry="5.99895" transform="rotate(13.3502 222.446 589.681)" fill="#FE9598"/>
<ellipse cx="240.443" cy="591.681" rx="3.9993" ry="5.99895" transform="rotate(13.3502 240.443 591.681)" fill="#FE9598"/>
<ellipse cx="217.17" cy="616.915" rx="13.9976" ry="13.9976" fill="#FE9598"/>
</svg>
