<svg width="600" height="740" viewBox="0 0 600 740" fill="none" xmlns="http://www.w3.org/2000/svg">
<mask id="mask0_37_267" style="mask-type:alpha" maskUnits="userSpaceOnUse" x="53" y="200" width="504" height="224">
<path d="M150.5 246.5C118.5 263.7 73.8333 326.667 55.5 356C219 384.333 547.3 436.5 552.5 418.5C559 396 556.5 393 540.5 341C524.5 289 425.5 229 404 214C382.5 199 304.5 202 268.5 202C232.5 202 190.5 225 150.5 246.5Z" fill="#D9D9D9" stroke="black" stroke-width="2"/>
</mask>
<g mask="url(#mask0_37_267)">
<path d="M150.5 246.5C118.5 263.7 73.8333 326.667 55.5 356C219 384.333 547.3 436.5 552.5 418.5C559 396 556.5 393 540.5 341C524.5 289 425.5 229 404 214C382.5 199 304.5 202 268.5 202C232.5 202 190.5 225 150.5 246.5Z" fill="#425BFF"/>
<rect x="31.7832" y="313.125" width="547.455" height="109" transform="rotate(7.72828 31.7832 313.125)" fill="#2C48FF" stroke="black" stroke-width="2"/>
<path d="M150.5 246.5C118.5 263.7 73.8333 326.667 55.5 356C219 384.333 547.3 436.5 552.5 418.5C559 396 556.5 393 540.5 341C524.5 289 425.5 229 404 214C382.5 199 304.5 202 268.5 202C232.5 202 190.5 225 150.5 246.5Z" stroke="black" stroke-width="2"/>
</g>
<path d="M330.901 128.272L331.299 129.127L331.784 128.318L334.103 124.452L335.566 128.717L335.873 129.607L336.439 128.854L339.148 125.252L340.159 129.646L340.371 130.563L341.013 129.874L344.084 126.574L344.63 131.05L344.744 131.984L345.455 131.366L348.854 128.405L348.93 132.913L348.945 133.855L349.717 133.314L353.407 130.725L353.011 135.216L352.928 136.154L353.752 135.697L357.692 133.508L356.829 137.933L356.648 138.857L357.516 138.488L361.663 136.723L360.342 141.033L360.065 141.935L360.967 141.658L365.276 140.336L363.512 144.484L363.143 145.352L364.067 145.171L368.491 144.307L366.303 148.248L365.846 149.072L366.784 148.989L371.274 148.592L368.686 152.283L368.145 153.055L369.087 153.07L373.594 153.145L370.634 156.545L370.016 157.256L370.95 157.37L375.425 157.915L372.126 160.987L371.437 161.629L372.354 161.841L376.747 162.851L373.146 165.561L372.393 166.127L373.283 166.434L377.547 167.896L373.682 170.216L372.873 170.701L373.728 171.099L377.814 173L373.728 174.901L372.873 175.299L373.682 175.784L377.547 178.103L373.283 179.566L372.393 179.873L373.146 180.439L376.747 183.148L372.354 184.159L371.437 184.371L372.126 185.013L375.425 188.084L370.95 188.63L370.016 188.744L370.634 189.455L373.594 192.854L369.087 192.93L368.145 192.945L368.686 193.717L371.274 197.407L366.784 197.011L365.846 196.928L366.303 197.752L368.491 201.692L364.067 200.829L363.143 200.648L363.512 201.516L365.276 205.663L360.967 204.342L360.065 204.065L360.342 204.967L361.663 209.276L357.516 207.512L356.648 207.143L356.829 208.067L357.692 212.491L353.752 210.303L352.928 209.846L353.011 210.784L353.407 215.274L349.717 212.686L348.945 212.145L348.93 213.087L348.854 217.594L345.455 214.634L344.744 214.016L344.63 214.95L344.084 219.425L341.013 216.126L340.371 215.437L340.159 216.354L339.148 220.747L336.439 217.146L335.873 216.393L335.566 217.283L334.103 221.547L331.784 217.682L331.299 216.873L330.901 217.728L329 221.814L327.099 217.728L326.701 216.873L326.216 217.682L323.896 221.547L322.434 217.283L322.127 216.393L321.561 217.146L318.851 220.747L317.841 216.354L317.629 215.437L316.987 216.126L313.915 219.425L313.37 214.95L313.256 214.016L312.545 214.634L309.145 217.594L309.07 213.087L309.055 212.145L308.283 212.686L304.592 215.274L304.989 210.784L305.072 209.846L304.248 210.303L300.307 212.491L301.171 208.067L301.352 207.143L300.484 207.512L296.336 209.276L297.658 204.967L297.935 204.065L297.033 204.342L292.723 205.663L294.488 201.516L294.857 200.648L293.933 200.829L289.508 201.692L291.697 197.752L292.154 196.928L291.216 197.011L286.725 197.407L289.314 193.717L289.855 192.945L288.913 192.93L284.405 192.854L287.366 189.455L287.984 188.744L287.05 188.63L282.574 188.084L285.874 185.013L286.563 184.371L285.646 184.159L281.252 183.148L284.854 180.439L285.607 179.873L284.717 179.566L280.452 178.103L284.318 175.784L285.127 175.299L284.272 174.901L280.185 173L284.272 171.099L285.127 170.701L284.318 170.216L280.452 167.896L284.717 166.434L285.607 166.127L284.854 165.561L281.252 162.851L285.646 161.841L286.563 161.629L285.874 160.987L282.574 157.915L287.05 157.37L287.984 157.256L287.366 156.545L284.405 153.145L288.913 153.07L289.855 153.055L289.314 152.283L286.725 148.592L291.216 148.989L292.154 149.072L291.697 148.248L289.508 144.307L293.933 145.171L294.857 145.352L294.488 144.484L292.723 140.336L297.033 141.658L297.935 141.935L297.658 141.033L296.336 136.723L300.484 138.488L301.352 138.857L301.171 137.933L300.307 133.508L304.248 135.697L305.072 136.154L304.989 135.216L304.592 130.725L308.283 133.314L309.055 133.855L309.07 132.913L309.145 128.405L312.545 131.366L313.256 131.984L313.37 131.05L313.915 126.574L316.987 129.874L317.629 130.563L317.841 129.646L318.851 125.252L321.561 128.854L322.127 129.607L322.434 128.717L323.896 124.452L326.216 128.318L326.701 129.127L327.099 128.272L329 124.185L330.901 128.272Z" fill="#3FA3F5" stroke="black"/>
</svg>
